2700 0 1 0           
15 SolidWorks 2023 14 ACIS 27.0.2 NT 24 Thu Dec 14 18:35:21 2023 
1 9.9999999999999995e-07 1e-10 
T @52 GN_MXVW2CADYE4D8EWCK24HK289MN4R83DRVQ6N37A6ERC6VJAT3 
-0 body $1 -1 -1 $-1 0 $2 $-1 $-1 F #
-1 name_attrib-gen-attrib $-1 -1 $-1 $-1 $0 2 1 1 1 1 1 1 1 1 1 1 1 1 1 0 1 1 1 @25 P004 - Fixture valve body #
-2 lump $3 -1 -1 $-1 $-1 $4 $0 F #
-3 rgb_color-st-attrib $-1 -1 $-1 $-1 $2 2 1 2 1 1 1 1 1 1 1 1 1 1 1 0 1 1 1 0.792156862745098 0.81960784313725488 0.93333333333333335 #
-4 shell $-1 -1 -1 $-1 $-1 $-1 $5 $-1 $2 F #
-5 face $6 -1 -1 $-1 $7 $8 $4 $-1 $9 forward single F T 0 0.78347944567988081 0 3.1415926535897931 #
-6 integer_attrib-name_attrib-gen-attrib $-1 -1 $-1 $-1 $5 2 1 2 1 1 1 1 1 1 1 1 1 1 1 0 1 1 1 @8 Chamfer1 0 #
-7 face $10 -1 -1 $-1 $11 $12 $4 $-1 $13 forward single F T -2.5503355704698003 -0.67114093959732235 0 3.1415926535897931 #
-8 loop $-1 -1 -1 $-1 $-1 $14 $5 F unknown #
-9 cone-surface $-1 -1 -1 $-1 3.1228493378257498e-15 8.5436911974758747 0 0 -1 0 0 0 -5.6496326843541098 1 I I 0.40673664307579677 0.91354545764260242 5.6496326843541098 forward I I I I #
-10 integer_attrib-name_attrib-gen-attrib $-1 -1 $-1 $-1 $7 2 1 2 1 1 1 1 1 1 1 1 1 1 1 0 1 1 1 @8 Chamfer1 0 #
-11 face $15 -1 -1 $-1 $16 $17 $4 $-1 $18 forward single F T -0.4630872483221482 -0.27933056148062979 0 3.1415926535897931 #
-12 loop $-1 -1 -1 $-1 $-1 $19 $7 F unknown #
-13 cone-surface $-1 -1 -1 $-1 3.1228493378257498e-15 9.5000000000000018 0 0 1 0 0 0 7.4499999999999966 1 I I 0 1 7.4499999999999966 forward I I I I #
-14 coedge $-1 -1 -1 $-1 $20 $21 $22 $23 reversed $8 $-1 #
-15 integer_attrib-name_attrib-gen-attrib $-1 -1 $-1 $-1 $11 2 1 2 1 1 1 1 1 1 1 1 1 1 1 0 1 1 1 @8 Chamfer1 0 #
-16 face $24 -1 -1 $-1 $25 $26 $4 $-1 $27 forward single F T 1.04542945297958 1.5707963267948966 0 3.1415926535897931 #
-17 loop $-1 -1 -1 $-1 $-1 $28 $11 F unknown #
-18 cone-surface $-1 -1 -1 $-1 3.1228493378257498e-15 7.5000000000000018 0 0 -1 0 0 0 -7.4499999999999966 1 I I 0.86514000146501446 0.50153043563189137 7.4499999999999966 forward I I I I #
-19 coedge $-1 -1 -1 $-1 $29 $30 $31 $32 forward $12 $-1 #
-20 coedge $-1 -1 -1 $-1 $33 $14 $34 $35 forward $8 $-1 #
-21 coedge $-1 -1 -1 $-1 $14 $33 $36 $37 reversed $8 $-1 #
-22 coedge $-1 -1 -1 $-1 $38 $39 $14 $23 forward $17 $-1 #
-23 edge $-1 -1 -1 $-1 $40 1.224646799147353e-16 $41 3.1415926535897931 $22 $42 forward @7 unknown F #
-24 integer_attrib-name_attrib-gen-attrib $-1 -1 $-1 $-1 $16 2 1 2 1 1 1 1 1 1 1 1 1 1 1 0 1 1 1 @8 Chamfer1 0 #
-25 face $43 -1 -1 $-1 $44 $45 $4 $-1 $46 reversed single F T 0 2.2222222222222223 -3.1415926535897931 0 #
-26 loop $-1 -1 -1 $-1 $-1 $47 $16 F unknown #
-27 torus-surface $-1 -1 -1 $-1 3.0357660829594124e-15 7.5000000000000018 0 0 1 0 3.4622061236819106 1.9999999999999982 0 0 1 forward_v I I I I #
-28 coedge $-1 -1 -1 $-1 $39 $38 $47 $48 reversed $17 $-1 #
-29 coedge $-1 -1 -1 $-1 $49 $19 $50 $51 forward $12 $-1 #
-30 coedge $-1 -1 -1 $-1 $19 $49 $52 $53 reversed $12 $-1 #
-31 coedge $-1 -1 -1 $-1 $54 $54 $19 $32 reversed $55 $-1 #
-32 edge $-1 -1 -1 $-1 $56 0 $57 3.1415926535897931 $19 $58 forward @7 unknown F #
-33 coedge $-1 -1 -1 $-1 $21 $20 $49 $59 reversed $8 $-1 #
-34 coedge $-1 -1 -1 $-1 $60 $61 $20 $35 reversed $62 $-1 #
-35 edge $-1 -1 -1 $-1 $40 3.6125470888119505e-19 $63 0.0044263710838326944 $20 $64 forward @7 unknown F #
-36 coedge $-1 -1 -1 $-1 $61 $60 $21 $37 forward $62 $-1 #
-37 edge $-1 -1 -1 $-1 $41 3.6125470888119505e-19 $65 0.0044263710838326944 $36 $66 forward @7 unknown F #
-38 coedge $-1 -1 -1 $-1 $28 $22 $67 $68 reversed $17 $-1 #
-39 coedge $-1 -1 -1 $-1 $22 $28 $69 $70 forward $17 $-1 #
-40 vertex $-1 -1 -1 $-1 $35 $71 #
-41 vertex $-1 -1 -1 $-1 $37 $72 #
-42 ellipse-curve $-1 -1 -1 $-1 3.1228493378257498e-15 8.5436911974758747 0 0 1 0 0 0 5.6496326843541107 1 I I #
-43 integer_attrib-name_attrib-gen-attrib $-1 -1 $-1 $-1 $25 2 1 2 1 1 1 1 1 1 1 1 1 1 1 0 1 1 1 @8 Chamfer1 0 #
-44 face $73 -1 -1 $-1 $74 $75 $4 $-1 $76 reversed single F T 0 2.2222222222222223 -3.1415926535897931 0 #
-45 loop $-1 -1 -1 $-1 $-1 $77 $25 F unknown #
-46 cone-surface $-1 -1 -1 $-1 17.499999999999993 -19.500000000000004 17.500000000000007 0 1 0 0 0 4.5000000000000009 1 I I 0 1 4.5000000000000009 forward I I I I #
-47 coedge $-1 -1 -1 $-1 $78 $79 $28 $48 forward $26 $-1 #
-48 edge $-1 -1 -1 $-1 $80 -1.9502362336878919e-17 $81 3.1415926535897931 $47 $82 forward @7 unknown F #
-49 coedge $-1 -1 -1 $-1 $30 $29 $33 $59 forward $12 $-1 #
-50 coedge $-1 -1 -1 $-1 $83 $84 $29 $51 reversed $85 $-1 #
-51 edge $-1 -1 -1 $-1 $57 -0.019000000000000003 $65 -0.0050000000000000487 $29 $86 forward @7 unknown F #
-52 coedge $-1 -1 -1 $-1 $84 $83 $30 $53 forward $85 $-1 #
-53 edge $-1 -1 -1 $-1 $56 -0.019000000000000003 $63 -0.0050000000000000487 $52 $87 forward @7 unknown F #
-54 coedge $-1 -1 -1 $-1 $31 $31 $83 $88 reversed $55 $-1 #
-55 loop $-1 -1 -1 $-1 $89 $31 $90 F unknown #
-56 vertex $-1 -1 -1 $-1 $88 $91 #
-57 vertex $-1 -1 -1 $-1 $51 $92 #
-58 ellipse-curve $-1 -1 -1 $-1 3.1228493378257498e-15 -9.5000000000000018 0 0 1 0 0 0 7.4499999999999966 1 I I #
-59 edge $-1 -1 -1 $-1 $65 1.224646799147353e-16 $63 3.1415926535897931 $49 $93 forward @7 unknown F #
-60 coedge $-1 -1 -1 $-1 $36 $34 $94 $95 reversed $62 $-1 #
-61 coedge $-1 -1 -1 $-1 $34 $36 $84 $96 reversed $62 $-1 #
-62 loop $-1 -1 -1 $-1 $-1 $34 $97 F unknown #
-63 vertex $-1 -1 -1 $-1 $35 $98 #
-64 straight-curve $-1 -1 -1 $-1 3.8147297961510029e-15 8.5436911974758747 5.6496326843541098 4.98108728038714e-14 -913.54545764260251 406.73664307579685 I I #
-65 vertex $-1 -1 -1 $-1 $37 $99 #
-66 straight-curve $-1 -1 -1 $-1 3.1228493378257498e-15 8.5436911974758747 -5.6496326843541098 0 -913.54545764260251 -406.73664307579685 I I #
-67 coedge $-1 -1 -1 $-1 $94 $100 $38 $68 forward $101 $-1 #
-68 edge $-1 -1 -1 $-1 $81 -0.0034500000000000025 $41 -0.0020810126830306912 $67 $102 forward @7 unknown F #
-69 coedge $-1 -1 -1 $-1 $100 $94 $39 $70 reversed $101 $-1 #
-70 edge $-1 -1 -1 $-1 $80 -0.0034500000000000025 $40 -0.0020810126830306912 $39 $103 forward @7 unknown F #
-71 point $-1 -1 -1 $-1 3.8147297961510029e-15 8.5436911974758747 5.6496326843541107 #
-72 point $-1 -1 -1 $-1 3.1228493378257498e-15 8.5436911974758747 -5.6496326843541107 #
-73 integer_attrib-name_attrib-gen-attrib $-1 -1 $-1 $-1 $44 2 1 2 1 1 1 1 1 1 1 1 1 1 1 0 1 1 1 @8 Chamfer1 0 #
-74 face $104 -1 -1 $-1 $105 $106 $4 $-1 $107 reversed single F T 0 2.2222222222222223 -3.1415926535897931 0 #
-75 loop $-1 -1 -1 $-1 $-1 $108 $44 F unknown #
-76 cone-surface $-1 -1 -1 $-1 -17.499999999999993 -19.500000000000004 17.500000000000007 0 1 0 0 0 4.5000000000000009 1 I I 0 1 4.5000000000000009 forward I I I I #
-77 coedge $-1 -1 -1 $-1 $109 $110 $111 $112 reversed $45 $-1 #
-78 coedge $-1 -1 -1 $-1 $113 $47 $114 $115 forward $26 $-1 #
-79 coedge $-1 -1 -1 $-1 $47 $113 $116 $117 reversed $26 $-1 #
-80 vertex $-1 -1 -1 $-1 $70 $118 #
-81 vertex $-1 -1 -1 $-1 $68 $119 #
-82 ellipse-curve $-1 -1 -1 $-1 3.1228493378257498e-15 9.2302800029300283 0 0 1 0 0 0 4.4652669949456945 1 I I #
-83 coedge $-1 -1 -1 $-1 $52 $50 $54 $88 forward $85 $-1 #
-84 coedge $-1 -1 -1 $-1 $50 $52 $61 $96 forward $85 $-1 #
-85 loop $-1 -1 -1 $-1 $-1 $50 $120 F unknown #
-86 straight-curve $-1 -1 -1 $-1 4.0352112031905275e-15 9.5000000000000018 -7.4499999999999966 0 1000 0 I I #
-87 straight-curve $-1 -1 -1 $-1 3.1228493378257498e-15 9.5000000000000018 7.4499999999999966 0 1000 0 I I #
-88 edge $-1 -1 -1 $-1 $57 -3.1415926535897931 $56 0 $83 $121 forward @7 unknown F #
-89 loop $-1 -1 -1 $-1 $-1 $122 $90 F unknown #
-90 face $123 -1 -1 $-1 $124 $55 $4 $-1 $125 forward single F F #
-91 point $-1 -1 -1 $-1 3.1228493378257498e-15 -9.5000000000000018 7.4499999999999966 #
-92 point $-1 -1 -1 $-1 4.0352112031905275e-15 -9.5000000000000018 -7.4499999999999966 #
-93 ellipse-curve $-1 -1 -1 $-1 3.1228493378257498e-15 4.4999999999999529 0 0 -1 0 0 0 -7.4499999999999966 1 I I #
-94 coedge $-1 -1 -1 $-1 $69 $67 $60 $95 forward $101 $-1 #
-95 edge $-1 -1 -1 $-1 $41 -3.1415926535897931 $40 1.224646799147353e-16 $94 $126 forward @7 unknown F #
-96 edge $-1 -1 -1 $-1 $63 -3.1415926535897931 $65 1.224646799147353e-16 $84 $127 forward @7 unknown F #
-97 face $128 -1 -1 $-1 $-1 $62 $4 $-1 $129 forward single F T 0 0.78347944567988081 -3.1415926535897931 1.224646799147353e-16 #
-98 point $-1 -1 -1 $-1 3.1228493378257498e-15 4.4999999999999529 7.4499999999999966 #
-99 point $-1 -1 -1 $-1 4.0352112031905275e-15 4.4999999999999529 -7.4499999999999966 #
-100 coedge $-1 -1 -1 $-1 $67 $69 $130 $131 reversed $101 $-1 #
-101 loop $-1 -1 -1 $-1 $-1 $69 $132 F unknown #
-102 straight-curve $-1 -1 -1 $-1 3.1228493378257498e-15 7.5000000000000018 -7.4499999999999966 0 -501.53043563189135 -865.14000146501451 I I #
-103 straight-curve $-1 -1 -1 $-1 4.0352112031905275e-15 7.5000000000000018 7.4499999999999966 1.0594909336084665e-13 -501.53043563189135 865.14000146501451 I I #
-104 integer_attrib-name_attrib-gen-attrib $-1 -1 $-1 $-1 $74 2 1 2 1 1 1 1 1 1 1 1 1 1 1 0 1 1 1 @8 Chamfer1 0 #
-105 face $133 -1 -1 $-1 $134 $135 $4 $-1 $136 reversed single F T 0 2.2222222222222223 -3.1415926535897931 0 #
-106 loop $-1 -1 -1 $-1 $-1 $137 $74 F unknown #
-107 cone-surface $-1 -1 -1 $-1 17.499999999999993 -19.500000000000004 -17.500000000000007 0 1 0 0 0 4.5000000000000009 1 I I 0 1 4.5000000000000009 forward I I I I #
-108 coedge $-1 -1 -1 $-1 $138 $139 $140 $141 forward $75 $-1 #
-109 coedge $-1 -1 -1 $-1 $142 $77 $143 $144 forward $45 $-1 #
-110 coedge $-1 -1 -1 $-1 $77 $142 $145 $146 reversed $45 $-1 #
-111 coedge $-1 -1 -1 $-1 $147 $147 $77 $112 forward $148 $-1 #
-112 edge $-1 -1 -1 $-1 $149 0 $150 3.1415926535897931 $111 $151 forward @7 unknown F #
-113 coedge $-1 -1 -1 $-1 $79 $78 $152 $153 reversed $26 $-1 #
-114 coedge $-1 -1 -1 $-1 $130 $154 $78 $115 reversed $155 $-1 #
-115 edge $-1 -1 -1 $-1 $81 1.04542945297958 $156 1.5707963267948966 $78 $157 forward @7 unknown F #
-116 coedge $-1 -1 -1 $-1 $154 $130 $79 $117 forward $155 $-1 #
-117 edge $-1 -1 -1 $-1 $80 1.04542945297958 $158 1.5707963267948966 $116 $159 forward @7 unknown F #
-118 point $-1 -1 -1 $-1 3.0357660829594124e-15 9.2302800029300283 4.4652669949456945 #
-119 point $-1 -1 -1 $-1 3.582603576229269e-15 9.2302800029300283 -4.4652669949456945 #
-120 face $160 -1 -1 $-1 $97 $85 $4 $-1 $161 forward single F T -2.5503355704698003 -0.67114093959732235 -3.1415926535897931 0 #
-121 ellipse-curve $-1 -1 -1 $-1 3.1228493378257498e-15 -9.5000000000000018 0 0 1 0 0 0 7.4499999999999966 1 I I #
-122 coedge $-1 -1 -1 $-1 $162 $163 $164 $165 forward $89 $-1 #
-123 integer_attrib-name_attrib-gen-attrib $-1 -1 $-1 $-1 $90 2 1 2 1 1 1 1 1 1 1 1 1 1 1 0 1 1 1 @8 Chamfer1 0 #
-124 face $166 -1 -1 $-1 $167 $168 $4 $-1 $169 reversed single F F #
-125 plane-surface $-1 -1 -1 $-1 0 -9.5000000000000018 0 0 1 0 0 0 1000 forward_v I I I I #
-126 ellipse-curve $-1 -1 -1 $-1 3.1228493378257498e-15 8.5436911974758747 0 0 1 0 0 0 5.6496326843541107 1 I I #
-127 ellipse-curve $-1 -1 -1 $-1 3.1228493378257498e-15 4.4999999999999529 0 0 -1 0 0 0 -7.4499999999999966 1 I I #
-128 integer_attrib-name_attrib-gen-attrib $-1 -1 $-1 $-1 $97 2 1 2 1 1 1 1 1 1 1 1 1 1 1 0 1 1 1 @8 Chamfer1 0 #
-129 cone-surface $-1 -1 -1 $-1 3.1228493378257498e-15 8.5436911974758747 0 0 -1 0 0 0 -5.6496326843541098 1 I I 0.40673664307579677 0.91354545764260242 5.6496326843541098 forward I I I I #
-130 coedge $-1 -1 -1 $-1 $116 $114 $100 $131 forward $155 $-1 #
-131 edge $-1 -1 -1 $-1 $81 -3.1415926535897931 $80 -1.9502362336878919e-17 $130 $170 forward @7 unknown F #
-132 face $171 -1 -1 $-1 $120 $101 $4 $-1 $172 forward single F T -0.4630872483221482 -0.27933056148062979 -3.1415926535897931 0 #
-133 integer_attrib-name_attrib-gen-attrib $-1 -1 $-1 $-1 $105 2 1 2 1 1 1 1 1 1 1 1 1 1 1 0 1 1 1 @8 Chamfer1 0 #
-134 face $173 -1 -1 $-1 $174 $175 $4 $-1 $176 forward single F T -1.1176470588235297 -0.82352941176470607 0 3.1415926535897931 #
-135 loop $-1 -1 -1 $-1 $-1 $177 $105 F unknown #
-136 cone-surface $-1 -1 -1 $-1 -17.499999999999993 -19.500000000000004 -17.500000000000007 0 1 0 0 0 4.5000000000000009 1 I I 0 1 4.5000000000000009 forward I I I I #
-137 coedge $-1 -1 -1 $-1 $178 $179 $180 $181 forward $106 $-1 #
-138 coedge $-1 -1 -1 $-1 $182 $108 $183 $184 forward $75 $-1 #
-139 coedge $-1 -1 -1 $-1 $108 $182 $185 $186 reversed $75 $-1 #
-140 coedge $-1 -1 -1 $-1 $187 $187 $108 $141 reversed $188 $-1 #
-141 edge $-1 -1 -1 $-1 $189 -3.1415926535897931 $190 0 $108 $191 forward @7 unknown F #
-142 coedge $-1 -1 -1 $-1 $110 $109 $192 $193 forward $45 $-1 #
-143 coedge $-1 -1 -1 $-1 $194 $195 $109 $144 reversed $196 $-1 #
-144 edge $-1 -1 -1 $-1 $149 0 $197 0.010000000000000002 $109 $198 forward @7 unknown F #
-145 coedge $-1 -1 -1 $-1 $195 $194 $110 $146 forward $196 $-1 #
-146 edge $-1 -1 -1 $-1 $150 0 $199 0.010000000000000002 $145 $200 forward @7 unknown F #
-147 coedge $-1 -1 -1 $-1 $111 $111 $194 $201 forward $148 $-1 #
-148 loop $-1 -1 -1 $-1 $188 $147 $202 F unknown #
-149 vertex $-1 -1 -1 $-1 $144 $203 #
-150 vertex $-1 -1 -1 $-1 $112 $204 #
-151 ellipse-curve $-1 -1 -1 $-1 17.499999999999993 -19.500000000000004 17.500000000000007 0 1 0 0 0 -4.5000000000000009 1 I I #
-152 coedge $-1 -1 -1 $-1 $205 $205 $113 $153 forward $168 $-1 #
-153 edge $-1 -1 -1 $-1 $158 0 $156 3.1415926535897931 $152 $206 forward @7 unknown F #
-154 coedge $-1 -1 -1 $-1 $114 $116 $205 $207 reversed $155 $-1 #
-155 loop $-1 -1 -1 $-1 $-1 $114 $167 F unknown #
-156 vertex $-1 -1 -1 $-1 $115 $208 #
-157 ellipse-curve $-1 -1 -1 $-1 3.4597640476949541e-15 7.5000000000000018 -3.4622061236819106 1 0 1.2246467991473532e-16 2.4492935982947049e-16 0 -1.9999999999999987 1 I I #
-158 vertex $-1 -1 -1 $-1 $207 $209 #
-159 ellipse-curve $-1 -1 -1 $-1 3.0357660829594124e-15 7.5000000000000018 3.4622061236819106 -1 0 0 0 0 1.9999999999999987 1 I I #
-160 integer_attrib-name_attrib-gen-attrib $-1 -1 $-1 $-1 $120 2 1 2 1 1 1 1 1 1 1 1 1 1 1 0 1 1 1 @8 Chamfer1 0 #
-161 cone-surface $-1 -1 -1 $-1 3.1228493378257498e-15 9.5000000000000018 0 0 1 0 0 0 7.4499999999999966 1 I I 0 1 7.4499999999999966 forward I I I I #
-162 coedge $-1 -1 -1 $-1 $210 $122 $211 $212 forward $89 $-1 #
-163 coedge $-1 -1 -1 $-1 $122 $213 $214 $215 forward $89 $-1 #
-164 coedge $-1 -1 -1 $-1 $216 $217 $122 $165 reversed $218 $-1 #
-165 edge $-1 -1 -1 $-1 $219 1 $220 0 $122 $221 forward @7 unknown F #
-166 integer_attrib-name_attrib-gen-attrib $-1 -1 $-1 $-1 $124 2 1 2 1 1 1 1 1 1 1 1 1 1 1 0 1 1 1 @8 Chamfer1 0 #
-167 face $222 -1 -1 $-1 $132 $155 $4 $-1 $223 forward single F T 1.04542945297958 1.5707963267948966 -3.1415926535897931 2.5152533314142498e-17 #
-168 loop $-1 -1 -1 $-1 $-1 $152 $124 F unknown #
-169 plane-surface $-1 -1 -1 $-1 3.1228493378257498e-15 9.5000000000000018 0 0 -1 0 0 0 -1000 forward_v I I I I #
-170 ellipse-curve $-1 -1 -1 $-1 3.1228493378257498e-15 9.2302800029300283 0 0 1 0 0 0 4.4652669949456945 1 I I #
-171 integer_attrib-name_attrib-gen-attrib $-1 -1 $-1 $-1 $132 2 1 2 1 1 1 1 1 1 1 1 1 1 1 0 1 1 1 @8 Chamfer1 0 #
-172 cone-surface $-1 -1 -1 $-1 3.1228493378257498e-15 7.5000000000000018 0 0 -1 0 0 0 -7.4499999999999966 1 I I 0.86514000146501446 0.50153043563189137 7.4499999999999966 forward I I I I #
-173 integer_attrib-name_attrib-gen-attrib $-1 -1 $-1 $-1 $134 2 1 2 1 1 1 1 1 1 1 1 1 1 1 0 1 1 1 @8 Chamfer1 0 #
-174 face $224 -1 -1 $-1 $225 $226 $4 $-1 $227 reversed single F F #
-175 loop $-1 -1 -1 $-1 $-1 $228 $134 F unknown #
-176 cone-surface $-1 -1 -1 $-1 3.1228493378257498e-15 9.5000000000000018 0 0 1 0 0 0 17 1 I I 0 1 17 forward I I I I #
-177 coedge $-1 -1 -1 $-1 $229 $230 $231 $232 reversed $135 $-1 #
-178 coedge $-1 -1 -1 $-1 $233 $137 $234 $235 forward $106 $-1 #
-179 coedge $-1 -1 -1 $-1 $137 $233 $236 $237 reversed $106 $-1 #
-180 coedge $-1 -1 -1 $-1 $238 $238 $137 $181 reversed $239 $-1 #
-181 edge $-1 -1 -1 $-1 $240 0 $241 3.1415926535897931 $137 $242 forward @7 unknown F #
-182 coedge $-1 -1 -1 $-1 $139 $138 $243 $244 reversed $75 $-1 #
-183 coedge $-1 -1 -1 $-1 $245 $246 $138 $184 reversed $247 $-1 #
-184 edge $-1 -1 -1 $-1 $190 0 $248 0.010000000000000002 $138 $249 forward @7 unknown F #
-185 coedge $-1 -1 -1 $-1 $246 $245 $139 $186 forward $247 $-1 #
-186 edge $-1 -1 -1 $-1 $189 0 $250 0.010000000000000002 $185 $251 forward @7 unknown F #
-187 coedge $-1 -1 -1 $-1 $140 $140 $245 $252 reversed $188 $-1 #
-188 loop $-1 -1 -1 $-1 $239 $140 $202 F unknown #
-189 vertex $-1 -1 -1 $-1 $252 $253 #
-190 vertex $-1 -1 -1 $-1 $184 $254 #
-191 ellipse-curve $-1 -1 -1 $-1 -17.499999999999993 -19.500000000000004 17.500000000000007 -0 -1 -0 0 0 -4.5000000000000009 1 I I #
-192 coedge $-1 -1 -1 $-1 $255 $255 $142 $193 reversed $256 $-1 #
-193 edge $-1 -1 -1 $-1 $197 0 $199 3.1415926535897931 $142 $257 forward @7 unknown F #
-194 coedge $-1 -1 -1 $-1 $145 $143 $147 $201 reversed $196 $-1 #
-195 coedge $-1 -1 -1 $-1 $143 $145 $255 $258 forward $196 $-1 #
-196 loop $-1 -1 -1 $-1 $-1 $143 $259 F unknown #
-197 vertex $-1 -1 -1 $-1 $144 $260 #
-198 straight-curve $-1 -1 -1 $-1 17.499999999999993 -19.500000000000004 13.000000000000009 0 1000 0 I I #
-199 vertex $-1 -1 -1 $-1 $193 $261 #
-200 straight-curve $-1 -1 -1 $-1 17.499999999999993 -19.500000000000004 22.000000000000011 0 1000 0 I I #
-201 edge $-1 -1 -1 $-1 $150 -3.1415926535897931 $149 0 $147 $262 forward @7 unknown F #
-202 face $263 -1 -1 $-1 $264 $148 $4 $-1 $265 forward single F F #
-203 point $-1 -1 -1 $-1 17.499999999999993 -19.500000000000004 13.000000000000009 #
-204 point $-1 -1 -1 $-1 17.499999999999993 -19.500000000000004 22.000000000000011 #
-205 coedge $-1 -1 -1 $-1 $152 $152 $154 $207 forward $168 $-1 #
-206 ellipse-curve $-1 -1 -1 $-1 3.1228493378257498e-15 9.5 0 0 1 0 0 0 3.4622061236819106 1 I I #
-207 edge $-1 -1 -1 $-1 $156 -3.1415926535897931 $158 0 $205 $266 forward @7 unknown F #
-208 point $-1 -1 -1 $-1 3.5211838119621115e-15 9.5 -3.4622061236819106 #
-209 point $-1 -1 -1 $-1 3.1228493378257498e-15 9.5 3.4622061236819106 #
-210 coedge $-1 -1 -1 $-1 $267 $162 $268 $269 forward $89 $-1 #
-211 coedge $-1 -1 -1 $-1 $270 $271 $162 $212 reversed $272 $-1 #
-212 edge $-1 -1 -1 $-1 $220 1 $273 0 $162 $274 forward @7 unknown F #
-213 coedge $-1 -1 -1 $-1 $163 $267 $275 $276 forward $89 $-1 #
-214 coedge $-1 -1 -1 $-1 $277 $278 $163 $215 reversed $279 $-1 #
-215 edge $-1 -1 -1 $-1 $280 1 $219 0 $163 $281 forward @7 unknown F #
-216 coedge $-1 -1 -1 $-1 $282 $164 $278 $283 forward $218 $-1 #
-217 coedge $-1 -1 -1 $-1 $164 $282 $270 $284 reversed $218 $-1 #
-218 loop $-1 -1 -1 $-1 $-1 $282 $285 F unknown #
-219 vertex $-1 -1 -1 $-1 $283 $286 #
-220 vertex $-1 -1 -1 $-1 $284 $287 #
-221 straight-curve $-1 -1 -1 $-1 7.2168783648703236 -9.5000000000000018 12.500000000000004 499.99999999999983 0 -866.02540378443882 I I #
-222 integer_attrib-name_attrib-gen-attrib $-1 -1 $-1 $-1 $167 2 1 2 1 1 1 1 1 1 1 1 1 1 1 0 1 1 1 @8 Chamfer1 0 #
-223 torus-surface $-1 -1 -1 $-1 3.0357660829594124e-15 7.5000000000000018 0 0 1 0 3.4622061236819106 1.9999999999999982 0 0 1 forward_v I I I I #
-224 integer_attrib-name_attrib-gen-attrib $-1 -1 $-1 $-1 $174 2 1 2 1 1 1 1 1 1 1 1 1 1 1 0 1 1 1 @8 Chamfer1 0 #
-225 face $288 -1 -1 $-1 $289 $290 $4 $-1 $291 forward single F T -1.1176470588235297 -0.82352941176470607 -3.1415926535897931 0 #
-226 loop $-1 -1 -1 $-1 $292 $293 $174 F unknown #
-227 plane-surface $-1 -1 -1 $-1 7.4500000000000002 -4.5000000000000018 0 0 -1 0 0 0 -1000 forward_v I I I I #
-228 coedge $-1 -1 -1 $-1 $294 $295 $296 $297 forward $175 $-1 #
-229 coedge $-1 -1 -1 $-1 $298 $177 $299 $300 forward $135 $-1 #
-230 coedge $-1 -1 -1 $-1 $177 $298 $301 $302 reversed $135 $-1 #
-231 coedge $-1 -1 -1 $-1 $303 $303 $177 $232 forward $304 $-1 #
-232 edge $-1 -1 -1 $-1 $305 -3.1415926535897931 $306 0 $231 $307 forward @7 unknown F #
-233 coedge $-1 -1 -1 $-1 $179 $178 $308 $309 reversed $106 $-1 #
-234 coedge $-1 -1 -1 $-1 $310 $311 $178 $235 reversed $312 $-1 #
-235 edge $-1 -1 -1 $-1 $241 0 $313 0.010000000000000002 $178 $314 forward @7 unknown F #
-236 coedge $-1 -1 -1 $-1 $311 $310 $179 $237 forward $312 $-1 #
-237 edge $-1 -1 -1 $-1 $240 0 $315 0.010000000000000002 $236 $316 forward @7 unknown F #
-238 coedge $-1 -1 -1 $-1 $180 $180 $310 $317 reversed $239 $-1 #
-239 loop $-1 -1 -1 $-1 $304 $180 $202 F unknown #
-240 vertex $-1 -1 -1 $-1 $317 $318 #
-241 vertex $-1 -1 -1 $-1 $235 $319 #
-242 ellipse-curve $-1 -1 -1 $-1 17.499999999999993 -19.500000000000004 -17.500000000000007 -0 -1 -0 0 0 4.5000000000000009 1 I I #
-243 coedge $-1 -1 -1 $-1 $320 $320 $182 $244 forward $321 $-1 #
-244 edge $-1 -1 -1 $-1 $250 -3.1415926535897931 $248 0 $243 $322 forward @7 unknown F #
-245 coedge $-1 -1 -1 $-1 $185 $183 $187 $252 forward $247 $-1 #
-246 coedge $-1 -1 -1 $-1 $183 $185 $320 $323 reversed $247 $-1 #
-247 loop $-1 -1 -1 $-1 $-1 $183 $324 F unknown #
-248 vertex $-1 -1 -1 $-1 $184 $325 #
-249 straight-curve $-1 -1 -1 $-1 -17.499999999999993 -19.500000000000004 13.000000000000009 0 1000 0 I I #
-250 vertex $-1 -1 -1 $-1 $323 $326 #
-251 straight-curve $-1 -1 -1 $-1 -17.499999999999993 -19.500000000000004 22.000000000000011 0 1000 0 I I #
-252 edge $-1 -1 -1 $-1 $190 0 $189 3.1415926535897931 $245 $327 forward @7 unknown F #
-253 point $-1 -1 -1 $-1 -17.499999999999993 -19.500000000000004 22.000000000000011 #
-254 point $-1 -1 -1 $-1 -17.499999999999993 -19.500000000000004 13.000000000000009 #
-255 coedge $-1 -1 -1 $-1 $192 $192 $195 $258 reversed $256 $-1 #
-256 loop $-1 -1 -1 $-1 $321 $255 $264 F unknown #
-257 ellipse-curve $-1 -1 -1 $-1 17.499999999999993 -9.5000000000000018 17.500000000000007 0 1 0 0 0 -4.5000000000000009 1 I I #
-258 edge $-1 -1 -1 $-1 $199 -3.1415926535897931 $197 0 $195 $328 forward @7 unknown F #
-259 face $329 -1 -1 $-1 $285 $196 $4 $-1 $330 reversed single F T 0 2.2222222222222223 0 3.1415926535897931 #
-260 point $-1 -1 -1 $-1 17.499999999999993 -9.5000000000000018 13.000000000000009 #
-261 point $-1 -1 -1 $-1 17.499999999999993 -9.5000000000000018 22.000000000000011 #
-262 ellipse-curve $-1 -1 -1 $-1 17.499999999999993 -19.500000000000004 17.500000000000007 0 1 0 0 0 -4.5000000000000009 1 I I #
-263 integer_attrib-name_attrib-gen-attrib $-1 -1 $-1 $-1 $202 2 1 2 1 1 1 1 1 1 1 1 1 1 1 0 1 1 1 @8 Chamfer1 0 #
-264 face $331 -1 -1 $-1 $332 $256 $4 $-1 $333 reversed single F F #
-265 plane-surface $-1 -1 -1 $-1 -17.499999999999996 -19.500000000000004 17.499999999999996 0 -1 0 0 0 -1000 forward_v I I I I #
-266 ellipse-curve $-1 -1 -1 $-1 3.1228493378257498e-15 9.5 0 0 1 0 0 0 3.4622061236819106 1 I I #
-267 coedge $-1 -1 -1 $-1 $213 $210 $334 $335 forward $89 $-1 #
-268 coedge $-1 -1 -1 $-1 $336 $337 $210 $269 reversed $338 $-1 #
-269 edge $-1 -1 -1 $-1 $273 1 $339 0 $210 $340 forward @7 unknown F #
-270 coedge $-1 -1 -1 $-1 $341 $211 $217 $284 forward $272 $-1 #
-271 coedge $-1 -1 -1 $-1 $211 $341 $336 $342 reversed $272 $-1 #
-272 loop $-1 -1 -1 $-1 $-1 $341 $343 F unknown #
-273 vertex $-1 -1 -1 $-1 $342 $344 #
-274 straight-curve $-1 -1 -1 $-1 14.433756729740645 -9.5000000000000018 -2.1400346746725866e-15 -499.99999999999989 0 -866.02540378443882 I I #
-275 coedge $-1 -1 -1 $-1 $345 $346 $213 $276 reversed $347 $-1 #
-276 edge $-1 -1 -1 $-1 $348 1 $280 0 $213 $349 forward @7 unknown F #
-277 coedge $-1 -1 -1 $-1 $350 $214 $346 $351 forward $279 $-1 #
-278 coedge $-1 -1 -1 $-1 $214 $350 $216 $283 reversed $279 $-1 #
-279 loop $-1 -1 -1 $-1 $-1 $350 $352 F unknown #
-280 vertex $-1 -1 -1 $-1 $351 $353 #
-281 straight-curve $-1 -1 -1 $-1 -7.2168783648703245 -9.5000000000000018 12.5 1000 0 2.4037033579794544e-13 I I #
-282 coedge $-1 -1 -1 $-1 $217 $216 $354 $355 forward $218 $-1 #
-283 edge $-1 -1 -1 $-1 $219 1 $356 0 $216 $357 forward @7 unknown F #
-284 edge $-1 -1 -1 $-1 $220 1 $358 0 $270 $359 forward @7 unknown F #
-285 face $360 -1 -1 $-1 $352 $218 $4 $-1 $361 reversed single F F #
-286 point $-1 -1 -1 $-1 7.2168783648703236 -9.5000000000000018 12.500000000000004 #
-287 point $-1 -1 -1 $-1 14.433756729740645 -9.5000000000000018 -2.1400346746725866e-15 #
-288 integer_attrib-name_attrib-gen-attrib $-1 -1 $-1 $-1 $225 2 1 2 1 1 1 1 1 1 1 1 1 1 1 0 1 1 1 @8 Chamfer1 0 #
-289 face $362 -1 -1 $-1 $363 $364 $4 $-1 $365 forward single F T 0 1 -1.5707963267949041 7.105427357601005e-15 #
-290 loop $-1 -1 -1 $-1 $-1 $366 $225 F unknown #
-291 cone-surface $-1 -1 -1 $-1 3.1228493378257498e-15 9.5000000000000018 0 0 1 0 0 0 17 1 I I 0 1 17 forward I I I I #
-292 loop $-1 -1 -1 $-1 $-1 $367 $174 F unknown #
-293 coedge $-1 -1 -1 $-1 $354 $368 $341 $369 reversed $226 $-1 #
-294 coedge $-1 -1 -1 $-1 $370 $228 $366 $371 forward $175 $-1 #
-295 coedge $-1 -1 -1 $-1 $228 $370 $372 $373 reversed $175 $-1 #
-296 coedge $-1 -1 -1 $-1 $374 $374 $228 $297 reversed $375 $-1 #
-297 edge $-1 -1 -1 $-1 $376 0 $377 3.1415926535897931 $228 $378 forward @7 unknown F #
-298 coedge $-1 -1 -1 $-1 $230 $229 $379 $380 forward $135 $-1 #
-299 coedge $-1 -1 -1 $-1 $381 $382 $229 $300 reversed $383 $-1 #
-300 edge $-1 -1 -1 $-1 $305 0 $384 0.010000000000000002 $229 $385 forward @7 unknown F #
-301 coedge $-1 -1 -1 $-1 $382 $381 $230 $302 forward $383 $-1 #
-302 edge $-1 -1 -1 $-1 $306 0 $386 0.010000000000000002 $301 $387 forward @7 unknown F #
-303 coedge $-1 -1 -1 $-1 $231 $231 $381 $388 forward $304 $-1 #
-304 loop $-1 -1 -1 $-1 $389 $303 $202 F unknown #
-305 vertex $-1 -1 -1 $-1 $300 $390 #
-306 vertex $-1 -1 -1 $-1 $232 $391 #
-307 ellipse-curve $-1 -1 -1 $-1 -17.499999999999993 -19.500000000000004 -17.500000000000007 0 1 0 0 0 4.5000000000000009 1 I I #
-308 coedge $-1 -1 -1 $-1 $392 $392 $233 $309 forward $393 $-1 #
-309 edge $-1 -1 -1 $-1 $315 0 $313 3.1415926535897931 $308 $394 forward @7 unknown F #
-310 coedge $-1 -1 -1 $-1 $236 $234 $238 $317 forward $312 $-1 #
-311 coedge $-1 -1 -1 $-1 $234 $236 $392 $395 reversed $312 $-1 #
-312 loop $-1 -1 -1 $-1 $-1 $234 $396 F unknown #
-313 vertex $-1 -1 -1 $-1 $235 $397 #
-314 straight-curve $-1 -1 -1 $-1 17.499999999999993 -19.500000000000004 -22.000000000000011 0 1000 0 I I #
-315 vertex $-1 -1 -1 $-1 $395 $398 #
-316 straight-curve $-1 -1 -1 $-1 17.499999999999993 -19.500000000000004 -13.000000000000009 0 1000 0 I I #
-317 edge $-1 -1 -1 $-1 $241 -3.1415926535897931 $240 0 $310 $399 forward @7 unknown F #
-318 point $-1 -1 -1 $-1 17.499999999999993 -19.500000000000004 -13.000000000000009 #
-319 point $-1 -1 -1 $-1 17.499999999999993 -19.500000000000004 -22.000000000000011 #
-320 coedge $-1 -1 -1 $-1 $243 $243 $246 $323 forward $321 $-1 #
-321 loop $-1 -1 -1 $-1 $393 $243 $264 F unknown #
-322 ellipse-curve $-1 -1 -1 $-1 -17.499999999999993 -9.5000000000000018 17.500000000000007 -0 -1 -0 0 0 -4.5000000000000009 1 I I #
-323 edge $-1 -1 -1 $-1 $248 0 $250 3.1415926535897931 $320 $400 forward @7 unknown F #
-324 face $401 -1 -1 $-1 $259 $247 $4 $-1 $402 reversed single F T 0 2.2222222222222223 0 3.1415926535897931 #
-325 point $-1 -1 -1 $-1 -17.499999999999993 -9.5000000000000018 13.000000000000009 #
-326 point $-1 -1 -1 $-1 -17.499999999999993 -9.5000000000000018 22.000000000000011 #
-327 ellipse-curve $-1 -1 -1 $-1 -17.499999999999993 -19.500000000000004 17.500000000000007 -0 -1 -0 0 0 -4.5000000000000009 1 I I #
-328 ellipse-curve $-1 -1 -1 $-1 17.499999999999993 -9.5000000000000018 17.500000000000007 0 1 0 0 0 -4.5000000000000009 1 I I #
-329 integer_attrib-name_attrib-gen-attrib $-1 -1 $-1 $-1 $259 2 1 2 1 1 1 1 1 1 1 1 1 1 1 0 1 1 1 @8 Chamfer1 0 #
-330 cone-surface $-1 -1 -1 $-1 17.499999999999993 -19.500000000000004 17.500000000000007 0 1 0 0 0 4.5000000000000009 1 I I 0 1 4.5000000000000009 forward I I I I #
-331 integer_attrib-name_attrib-gen-attrib $-1 -1 $-1 $-1 $264 2 1 2 1 1 1 1 1 1 1 1 1 1 1 0 1 1 1 @8 Chamfer1 0 #
-332 face $403 -1 -1 $-1 $396 $383 $4 $-1 $404 reversed single F T 0 2.2222222222222223 0 3.1415926535897931 #
-333 plane-surface $-1 -1 -1 $-1 -17.499999999999996 -9.5000000000000018 17.499999999999996 0 -1 0 0 0 -1000 forward_v I I I I #
-334 coedge $-1 -1 -1 $-1 $405 $406 $267 $335 reversed $407 $-1 #
-335 edge $-1 -1 -1 $-1 $339 1 $348 0 $267 $408 forward @7 unknown F #
-336 coedge $-1 -1 -1 $-1 $409 $268 $271 $342 forward $338 $-1 #
-337 coedge $-1 -1 -1 $-1 $268 $409 $405 $410 reversed $338 $-1 #
-338 loop $-1 -1 -1 $-1 $-1 $409 $411 F unknown #
-339 vertex $-1 -1 -1 $-1 $410 $412 #
-340 straight-curve $-1 -1 -1 $-1 7.2168783648703245 -9.5000000000000018 -12.500000000000005 -1000 0 -1.2018516789897277e-13 I I #
-341 coedge $-1 -1 -1 $-1 $271 $270 $293 $369 forward $272 $-1 #
-342 edge $-1 -1 -1 $-1 $273 1 $413 0 $336 $414 forward @7 unknown F #
-343 face $415 -1 -1 $-1 $90 $272 $4 $-1 $416 reversed single F F #
-344 point $-1 -1 -1 $-1 7.2168783648703245 -9.5000000000000018 -12.500000000000005 #
-345 coedge $-1 -1 -1 $-1 $417 $275 $406 $418 forward $347 $-1 #
-346 coedge $-1 -1 -1 $-1 $275 $417 $277 $351 reversed $347 $-1 #
-347 loop $-1 -1 -1 $-1 $-1 $417 $419 F unknown #
-348 vertex $-1 -1 -1 $-1 $418 $420 #
-349 straight-curve $-1 -1 -1 $-1 -14.433756729740645 -9.5000000000000018 -3.3721023810808058e-16 500.00000000000011 0 866.02540378443905 I I #
-350 coedge $-1 -1 -1 $-1 $278 $277 $421 $422 forward $279 $-1 #
-351 edge $-1 -1 -1 $-1 $280 1 $423 0 $277 $424 forward @7 unknown F #
-352 face $425 -1 -1 $-1 $419 $279 $4 $-1 $426 reversed single F F #
-353 point $-1 -1 -1 $-1 -7.2168783648703245 -9.5000000000000018 12.5 #
-354 coedge $-1 -1 -1 $-1 $421 $293 $282 $355 reversed $226 $-1 #
-355 edge $-1 -1 -1 $-1 $356 1 $358 0 $282 $427 forward @7 unknown F #
-356 vertex $-1 -1 -1 $-1 $283 $428 #
-357 straight-curve $-1 -1 -1 $-1 7.2168783648703236 -9.5000000000000018 12.500000000000004 0 1000 0 I I #
-358 vertex $-1 -1 -1 $-1 $355 $429 #
-359 straight-curve $-1 -1 -1 $-1 14.433756729740645 -9.5000000000000018 -2.1400346746725866e-15 0 1000 0 I I #
-360 integer_attrib-name_attrib-gen-attrib $-1 -1 $-1 $-1 $285 2 1 2 1 1 1 1 1 1 1 1 1 1 1 0 1 1 1 @8 Chamfer1 0 #
-361 plane-surface $-1 -1 -1 $-1 7.2168783648703236 -9.5000000000000018 12.500000000000004 0.86602540378443882 0 0.49999999999999983 499.99999999999983 0 -866.02540378443882 forward_v I I I I #
-362 integer_attrib-name_attrib-gen-attrib $-1 -1 $-1 $-1 $289 2 1 2 1 1 1 1 1 1 1 1 1 1 1 0 1 1 1 @8 Chamfer1 0 #
-363 face $430 -1 -1 $-1 $431 $432 $4 $-1 $433 reversed single F F #
-364 loop $-1 -1 -1 $-1 $-1 $434 $289 F unknown #
-365 cone-surface $-1 -1 -1 $-1 -17.499999999999996 -19.500000000000004 17.499999999999996 0 1 0 0 0 10.000000000000002 1 I I 0 1 10.000000000000002 forward I I I I #
-366 coedge $-1 -1 -1 $-1 $435 $436 $294 $371 reversed $290 $-1 #
-367 coedge $-1 -1 -1 $-1 $437 $437 $370 $438 forward $292 $-1 #
-368 coedge $-1 -1 -1 $-1 $293 $439 $409 $440 reversed $226 $-1 #
-369 edge $-1 -1 -1 $-1 $358 1 $413 0 $341 $441 forward @7 unknown F #
-370 coedge $-1 -1 -1 $-1 $295 $294 $367 $438 reversed $175 $-1 #
-371 edge $-1 -1 -1 $-1 $377 -0.019000000000000003 $442 -0.014000000000000004 $294 $443 forward @7 unknown F #
-372 coedge $-1 -1 -1 $-1 $436 $435 $295 $373 forward $290 $-1 #
-373 edge $-1 -1 -1 $-1 $376 -0.019000000000000003 $444 -0.014000000000000004 $372 $445 forward @7 unknown F #
-374 coedge $-1 -1 -1 $-1 $296 $296 $435 $446 reversed $375 $-1 #
-375 loop $-1 -1 -1 $-1 $447 $296 $264 F unknown #
-376 vertex $-1 -1 -1 $-1 $446 $448 #
-377 vertex $-1 -1 -1 $-1 $371 $449 #
-378 ellipse-curve $-1 -1 -1 $-1 3.1228493378257498e-15 -9.5000000000000018 0 0 1 0 0 0 17 1 I I #
-379 coedge $-1 -1 -1 $-1 $450 $450 $298 $380 reversed $451 $-1 #
-380 edge $-1 -1 -1 $-1 $384 -3.1415926535897931 $386 0 $298 $452 forward @7 unknown F #
-381 coedge $-1 -1 -1 $-1 $301 $299 $303 $388 reversed $383 $-1 #
-382 coedge $-1 -1 -1 $-1 $299 $301 $450 $453 forward $383 $-1 #
-383 loop $-1 -1 -1 $-1 $-1 $299 $332 F unknown #
-384 vertex $-1 -1 -1 $-1 $300 $454 #
-385 straight-curve $-1 -1 -1 $-1 -17.499999999999993 -19.500000000000004 -22.000000000000011 0 1000 0 I I #
-386 vertex $-1 -1 -1 $-1 $380 $455 #
-387 straight-curve $-1 -1 -1 $-1 -17.499999999999993 -19.500000000000004 -13.000000000000009 0 1000 0 I I #
-388 edge $-1 -1 -1 $-1 $306 0 $305 3.1415926535897931 $303 $456 forward @7 unknown F #
-389 loop $-1 -1 -1 $-1 $-1 $457 $202 F unknown #
-390 point $-1 -1 -1 $-1 -17.499999999999993 -19.500000000000004 -22.000000000000011 #
-391 point $-1 -1 -1 $-1 -17.499999999999993 -19.500000000000004 -13.000000000000009 #
-392 coedge $-1 -1 -1 $-1 $308 $308 $311 $395 forward $393 $-1 #
-393 loop $-1 -1 -1 $-1 $451 $308 $264 F unknown #
-394 ellipse-curve $-1 -1 -1 $-1 17.499999999999993 -9.5000000000000018 -17.500000000000007 -0 -1 -0 0 0 4.5000000000000009 1 I I #
-395 edge $-1 -1 -1 $-1 $313 -3.1415926535897931 $315 0 $392 $458 forward @7 unknown F #
-396 face $459 -1 -1 $-1 $324 $312 $4 $-1 $460 reversed single F T 0 2.2222222222222223 0 3.1415926535897931 #
-397 point $-1 -1 -1 $-1 17.499999999999993 -9.5000000000000018 -22.000000000000011 #
-398 point $-1 -1 -1 $-1 17.499999999999993 -9.5000000000000018 -13.000000000000009 #
-399 ellipse-curve $-1 -1 -1 $-1 17.499999999999993 -19.500000000000004 -17.500000000000007 -0 -1 -0 0 0 4.5000000000000009 1 I I #
-400 ellipse-curve $-1 -1 -1 $-1 -17.499999999999993 -9.5000000000000018 17.500000000000007 -0 -1 -0 0 0 -4.5000000000000009 1 I I #
-401 integer_attrib-name_attrib-gen-attrib $-1 -1 $-1 $-1 $324 2 1 2 1 1 1 1 1 1 1 1 1 1 1 0 1 1 1 @8 Chamfer1 0 #
-402 cone-surface $-1 -1 -1 $-1 -17.499999999999993 -19.500000000000004 17.500000000000007 0 1 0 0 0 4.5000000000000009 1 I I 0 1 4.5000000000000009 forward I I I I #
-403 integer_attrib-name_attrib-gen-attrib $-1 -1 $-1 $-1 $332 2 1 2 1 1 1 1 1 1 1 1 1 1 1 0 1 1 1 @8 Chamfer1 0 #
-404 cone-surface $-1 -1 -1 $-1 -17.499999999999993 -19.500000000000004 -17.500000000000007 0 1 0 0 0 4.5000000000000009 1 I I 0 1 4.5000000000000009 forward I I I I #
-405 coedge $-1 -1 -1 $-1 $461 $334 $337 $410 forward $407 $-1 #
-406 coedge $-1 -1 -1 $-1 $334 $461 $345 $418 reversed $407 $-1 #
-407 loop $-1 -1 -1 $-1 $-1 $461 $462 F unknown #
-408 straight-curve $-1 -1 -1 $-1 -7.2168783648703165 -9.5000000000000018 -12.500000000000007 -500.00000000000011 0 866.02540378443859 I I #
-409 coedge $-1 -1 -1 $-1 $337 $336 $368 $440 forward $338 $-1 #
-410 edge $-1 -1 -1 $-1 $339 1 $463 0 $405 $464 forward @7 unknown F #
-411 face $465 -1 -1 $-1 $343 $338 $4 $-1 $466 reversed single F F #
-412 point $-1 -1 -1 $-1 -7.2168783648703165 -9.5000000000000018 -12.500000000000007 #
-413 vertex $-1 -1 -1 $-1 $342 $467 #
-414 straight-curve $-1 -1 -1 $-1 7.2168783648703245 -9.5000000000000018 -12.500000000000005 0 1000 0 I I #
-415 integer_attrib-name_attrib-gen-attrib $-1 -1 $-1 $-1 $343 2 1 2 1 1 1 1 1 1 1 1 1 1 1 0 1 1 1 @8 Chamfer1 0 #
-416 plane-surface $-1 -1 -1 $-1 14.433756729740645 -9.5000000000000018 -2.1400346746725866e-15 0.86602540378443882 0 -0.49999999999999994 -499.99999999999994 0 -866.02540378443882 forward_v I I I I #
-417 coedge $-1 -1 -1 $-1 $346 $345 $468 $469 forward $347 $-1 #
-418 edge $-1 -1 -1 $-1 $348 1 $470 0 $345 $471 forward @7 unknown F #
-419 face $472 -1 -1 $-1 $462 $347 $4 $-1 $473 reversed single F F #
-420 point $-1 -1 -1 $-1 -14.433756729740645 -9.5000000000000018 -3.3721023810808058e-16 #
-421 coedge $-1 -1 -1 $-1 $468 $354 $350 $422 reversed $226 $-1 #
-422 edge $-1 -1 -1 $-1 $423 1 $356 0 $350 $474 forward @7 unknown F #
-423 vertex $-1 -1 -1 $-1 $351 $475 #
-424 straight-curve $-1 -1 -1 $-1 -7.2168783648703245 -9.5000000000000018 12.5 0 1000 0 I I #
-425 integer_attrib-name_attrib-gen-attrib $-1 -1 $-1 $-1 $352 2 1 2 1 1 1 1 1 1 1 1 1 1 1 0 1 1 1 @8 Chamfer1 0 #
-426 plane-surface $-1 -1 -1 $-1 -7.2168783648703245 -9.5000000000000018 12.5 -2.4037033579794542e-16 0 1 1000 0 2.4037033579794544e-13 forward_v I I I I #
-427 straight-curve $-1 -1 -1 $-1 7.2168783648703236 -4.5000000000000018 12.500000000000004 499.99999999999983 0 -866.02540378443882 I I #
-428 point $-1 -1 -1 $-1 7.2168783648703236 -4.5000000000000018 12.500000000000004 #
-429 point $-1 -1 -1 $-1 14.433756729740645 -4.5000000000000018 -2.1684043449710089e-15 #
-430 integer_attrib-name_attrib-gen-attrib $-1 -1 $-1 $-1 $363 2 1 2 1 1 1 1 1 1 1 1 1 1 1 0 1 1 1 @8 Chamfer1 0 #
-431 face $476 -1 -1 $-1 $477 $478 $4 $-1 $479 forward single F T 0 1.0000000000000004 -3.1415926535898011 -1.5707963267948899 #
-432 loop $-1 -1 -1 $-1 $-1 $480 $363 F unknown #
-433 plane-surface $-1 -1 -1 $-1 -27.499999999999996 -19.500000000000004 17.499999999999922 1 0 1.9825411154020732e-16 1.9825411154020731e-13 0 -1000 forward_v I I I I #
-434 coedge $-1 -1 -1 $-1 $481 $482 $483 $484 forward $364 $-1 #
-435 coedge $-1 -1 -1 $-1 $372 $366 $374 $446 forward $290 $-1 #
-436 coedge $-1 -1 -1 $-1 $366 $372 $437 $485 reversed $290 $-1 #
-437 coedge $-1 -1 -1 $-1 $367 $367 $436 $485 forward $292 $-1 #
-438 edge $-1 -1 -1 $-1 $444 0 $442 3.1415926535897931 $367 $486 forward @7 unknown F #
-439 coedge $-1 -1 -1 $-1 $368 $468 $461 $487 reversed $226 $-1 #
-440 edge $-1 -1 -1 $-1 $413 1 $463 0 $409 $488 forward @7 unknown F #
-441 straight-curve $-1 -1 -1 $-1 14.433756729740645 -4.5000000000000018 -2.1400346746725866e-15 -499.99999999999989 0 -866.02540378443882 I I #
-442 vertex $-1 -1 -1 $-1 $371 $489 #
-443 straight-curve $-1 -1 -1 $-1 5.2047488963762501e-15 9.5000000000000018 -17 0 1000 0 I I #
-444 vertex $-1 -1 -1 $-1 $485 $490 #
-445 straight-curve $-1 -1 -1 $-1 3.1228493378257498e-15 9.5000000000000018 17 0 1000 0 I I #
-446 edge $-1 -1 -1 $-1 $377 -3.1415926535897931 $376 0 $435 $491 forward @7 unknown F #
-447 loop $-1 -1 -1 $-1 $-1 $483 $264 F unknown #
-448 point $-1 -1 -1 $-1 3.1228493378257498e-15 -9.5000000000000018 17 #
-449 point $-1 -1 -1 $-1 5.2047488963762501e-15 -9.5000000000000018 -17 #
-450 coedge $-1 -1 -1 $-1 $379 $379 $382 $453 reversed $451 $-1 #
-451 loop $-1 -1 -1 $-1 $375 $450 $264 F unknown #
-452 ellipse-curve $-1 -1 -1 $-1 -17.499999999999993 -9.5000000000000018 -17.500000000000007 0 1 0 0 0 4.5000000000000009 1 I I #
-453 edge $-1 -1 -1 $-1 $386 0 $384 3.1415926535897931 $382 $492 forward @7 unknown F #
-454 point $-1 -1 -1 $-1 -17.499999999999993 -9.5000000000000018 -22.000000000000011 #
-455 point $-1 -1 -1 $-1 -17.499999999999993 -9.5000000000000018 -13.000000000000009 #
-456 ellipse-curve $-1 -1 -1 $-1 -17.499999999999993 -19.500000000000004 -17.500000000000007 0 1 0 0 0 4.5000000000000009 1 I I #
-457 coedge $-1 -1 -1 $-1 $493 $494 $495 $496 forward $389 $-1 #
-458 ellipse-curve $-1 -1 -1 $-1 17.499999999999993 -9.5000000000000018 -17.500000000000007 -0 -1 -0 0 0 4.5000000000000009 1 I I #
-459 integer_attrib-name_attrib-gen-attrib $-1 -1 $-1 $-1 $396 2 1 2 1 1 1 1 1 1 1 1 1 1 1 0 1 1 1 @8 Chamfer1 0 #
-460 cone-surface $-1 -1 -1 $-1 17.499999999999993 -19.500000000000004 -17.500000000000007 0 1 0 0 0 4.5000000000000009 1 I I 0 1 4.5000000000000009 forward I I I I #
-461 coedge $-1 -1 -1 $-1 $406 $405 $439 $487 forward $407 $-1 #
-462 face $497 -1 -1 $-1 $411 $407 $4 $-1 $498 reversed single F F #
-463 vertex $-1 -1 -1 $-1 $410 $499 #
-464 straight-curve $-1 -1 -1 $-1 -7.2168783648703165 -9.5000000000000018 -12.500000000000007 0 1000 0 I I #
-465 integer_attrib-name_attrib-gen-attrib $-1 -1 $-1 $-1 $411 2 1 2 1 1 1 1 1 1 1 1 1 1 1 0 1 1 1 @8 Chamfer1 0 #
-466 plane-surface $-1 -1 -1 $-1 7.2168783648703245 -9.5000000000000018 -12.500000000000005 1.2018516789897278e-16 0 -1 -1000 0 -1.2018516789897277e-13 forward_v I I I I #
-467 point $-1 -1 -1 $-1 7.2168783648703245 -4.5000000000000018 -12.500000000000005 #
-468 coedge $-1 -1 -1 $-1 $439 $421 $417 $469 reversed $226 $-1 #
-469 edge $-1 -1 -1 $-1 $470 1 $423 0 $417 $500 forward @7 unknown F #
-470 vertex $-1 -1 -1 $-1 $418 $501 #
-471 straight-curve $-1 -1 -1 $-1 -14.433756729740645 -9.5000000000000018 -3.3721023810808058e-16 0 1000 0 I I #
-472 integer_attrib-name_attrib-gen-attrib $-1 -1 $-1 $-1 $419 2 1 2 1 1 1 1 1 1 1 1 1 1 1 0 1 1 1 @8 Chamfer1 0 #
-473 plane-surface $-1 -1 -1 $-1 -14.433756729740645 -9.5000000000000018 -3.3721023810808058e-16 -0.86602540378443871 0 0.49999999999999994 500 0 866.02540378443882 forward_v I I I I #
-474 straight-curve $-1 -1 -1 $-1 -7.2168783648703245 -4.5000000000000018 12.5 1000 0 2.4037033579794544e-13 I I #
-475 point $-1 -1 -1 $-1 -7.2168783648703245 -4.5000000000000018 12.5 #
-476 integer_attrib-name_attrib-gen-attrib $-1 -1 $-1 $-1 $431 2 1 2 1 1 1 1 1 1 1 1 1 1 1 0 1 1 1 @8 Chamfer1 0 #
-477 face $502 -1 -1 $-1 $503 $504 $4 $-1 $505 reversed single F F #
-478 loop $-1 -1 -1 $-1 $-1 $506 $431 F unknown #
-479 cone-surface $-1 -1 -1 $-1 -17.499999999999993 -19.500000000000004 -17.500000000000007 0 1 0 0 0 9.9999999999999982 1 I I 0 1 9.9999999999999982 forward I I I I #
-480 coedge $-1 -1 -1 $-1 $507 $508 $509 $510 forward $432 $-1 #
-481 coedge $-1 -1 -1 $-1 $495 $434 $508 $511 reversed $364 $-1 #
-482 coedge $-1 -1 -1 $-1 $434 $495 $512 $513 forward $364 $-1 #
-483 coedge $-1 -1 -1 $-1 $514 $509 $434 $484 reversed $447 $-1 #
-484 edge $-1 -1 -1 $-1 $515 -3.1415926535898002 $516 -1.570796326794889 $434 $517 forward @7 unknown F #
-485 edge $-1 -1 -1 $-1 $442 -3.1415926535897931 $444 0 $437 $518 forward @7 unknown F #
-486 ellipse-curve $-1 -1 -1 $-1 3.1228493378257498e-15 -4.5000000000000027 0 0 1 0 0 0 17 1 I I #
-487 edge $-1 -1 -1 $-1 $463 1 $470 0 $461 $519 forward @7 unknown F #
-488 straight-curve $-1 -1 -1 $-1 7.2168783648703245 -4.5000000000000018 -12.500000000000005 -1000 0 -1.2018516789897277e-13 I I #
-489 point $-1 -1 -1 $-1 5.2047488963762501e-15 -4.5000000000000027 -17 #
-490 point $-1 -1 -1 $-1 3.1228493378257498e-15 -4.5000000000000027 17 #
-491 ellipse-curve $-1 -1 -1 $-1 3.1228493378257498e-15 -9.5000000000000018 0 0 1 0 0 0 17 1 I I #
-492 ellipse-curve $-1 -1 -1 $-1 -17.499999999999993 -9.5000000000000018 -17.500000000000007 0 1 0 0 0 4.5000000000000009 1 I I #
-493 coedge $-1 -1 -1 $-1 $520 $457 $521 $522 forward $389 $-1 #
-494 coedge $-1 -1 -1 $-1 $457 $523 $524 $525 forward $389 $-1 #
-495 coedge $-1 -1 -1 $-1 $482 $481 $457 $496 reversed $364 $-1 #
-496 edge $-1 -1 -1 $-1 $526 -3.1415926535898002 $527 -1.570796326794889 $457 $528 forward @7 unknown F #
-497 integer_attrib-name_attrib-gen-attrib $-1 -1 $-1 $-1 $462 2 1 2 1 1 1 1 1 1 1 1 1 1 1 0 1 1 1 @8 Chamfer1 0 #
-498 plane-surface $-1 -1 -1 $-1 -7.2168783648703165 -9.5000000000000018 -12.500000000000007 -0.8660254037844386 0 -0.50000000000000011 -500.00000000000011 0 866.02540378443859 forward_v I I I I #
-499 point $-1 -1 -1 $-1 -7.2168783648703165 -4.5000000000000018 -12.500000000000007 #
-500 straight-curve $-1 -1 -1 $-1 -14.433756729740645 -4.5000000000000018 -3.3721023810808058e-16 500.00000000000011 0 866.02540378443905 I I #
-501 point $-1 -1 -1 $-1 -14.433756729740645 -4.5000000000000018 -3.3721023810808058e-16 #
-502 integer_attrib-name_attrib-gen-attrib $-1 -1 $-1 $-1 $477 2 1 2 1 1 1 1 1 1 1 1 1 1 1 0 1 1 1 @8 Chamfer1 0 #
-503 face $529 -1 -1 $-1 $530 $531 $4 $-1 $532 forward single F T 0 1.0000000000000004 1.570796326794889 3.1415926535897993 #
-504 loop $-1 -1 -1 $-1 $-1 $533 $477 F unknown #
-505 plane-surface $-1 -1 -1 $-1 17.49999999999994 -19.500000000000004 -27.500000000000004 -9.9127055770103662e-17 0 1 1000 0 9.9127055770103657e-14 forward_v I I I I #
-506 coedge $-1 -1 -1 $-1 $534 $535 $536 $537 forward $478 $-1 #
-507 coedge $-1 -1 -1 $-1 $521 $480 $535 $538 reversed $432 $-1 #
-508 coedge $-1 -1 -1 $-1 $480 $521 $481 $511 forward $432 $-1 #
-509 coedge $-1 -1 -1 $-1 $483 $536 $480 $510 reversed $447 $-1 #
-510 edge $-1 -1 -1 $-1 $516 1 $539 0 $480 $540 forward @7 unknown F #
-511 edge $-1 -1 -1 $-1 $527 0 $516 0.010000000000000002 $508 $541 forward @7 unknown F #
-512 coedge $-1 -1 -1 $-1 $524 $542 $482 $513 reversed $543 $-1 #
-513 edge $-1 -1 -1 $-1 $526 0 $515 0.010000000000000002 $482 $544 forward @7 unknown F #
-514 coedge $-1 -1 -1 $-1 $545 $483 $542 $546 reversed $447 $-1 #
-515 vertex $-1 -1 -1 $-1 $546 $547 #
-516 vertex $-1 -1 -1 $-1 $510 $548 #
-517 ellipse-curve $-1 -1 -1 $-1 -17.499999999999996 -9.5000000000000018 17.499999999999996 0 -1 0 0 0 -10 1 I I #
-518 ellipse-curve $-1 -1 -1 $-1 3.1228493378257498e-15 -4.5000000000000027 0 0 1 0 0 0 17 1 I I #
-519 straight-curve $-1 -1 -1 $-1 -7.2168783648703165 -4.5000000000000018 -12.500000000000007 -500.00000000000011 0 866.02540378443859 I I #
-520 coedge $-1 -1 -1 $-1 $549 $493 $550 $551 forward $389 $-1 #
-521 coedge $-1 -1 -1 $-1 $508 $507 $493 $522 reversed $432 $-1 #
-522 edge $-1 -1 -1 $-1 $527 1 $552 0 $493 $553 forward @7 unknown F #
-523 coedge $-1 -1 -1 $-1 $494 $554 $555 $556 forward $389 $-1 #
-524 coedge $-1 -1 -1 $-1 $557 $512 $494 $525 reversed $543 $-1 #
-525 edge $-1 -1 -1 $-1 $558 1 $526 0 $494 $559 forward @7 unknown F #
-526 vertex $-1 -1 -1 $-1 $525 $560 #
-527 vertex $-1 -1 -1 $-1 $522 $561 #
-528 ellipse-curve $-1 -1 -1 $-1 -17.499999999999996 -19.500000000000004 17.499999999999996 0 -1 0 0 0 -10 1 I I #
-529 integer_attrib-name_attrib-gen-attrib $-1 -1 $-1 $-1 $503 2 1 2 1 1 1 1 1 1 1 1 1 1 1 0 1 1 1 @8 Chamfer1 0 #
-530 face $562 -1 -1 $-1 $563 $564 $4 $-1 $565 reversed single F F #
-531 loop $-1 -1 -1 $-1 $-1 $566 $503 F unknown #
-532 cone-surface $-1 -1 -1 $-1 17.500000000000007 -19.500000000000004 -17.500000000000007 0 1 0 0 0 9.9999999999999982 1 I I 0 1 9.9999999999999982 forward I I I I #
-533 coedge $-1 -1 -1 $-1 $567 $568 $569 $570 forward $504 $-1 #
-534 coedge $-1 -1 -1 $-1 $550 $506 $568 $571 reversed $478 $-1 #
-535 coedge $-1 -1 -1 $-1 $506 $550 $507 $538 forward $478 $-1 #
-536 coedge $-1 -1 -1 $-1 $509 $569 $506 $537 reversed $447 $-1 #
-537 edge $-1 -1 -1 $-1 $539 1.5707963267948899 $572 3.1415926535898011 $506 $573 forward @7 unknown F #
-538 edge $-1 -1 -1 $-1 $552 0 $539 0.010000000000000002 $535 $574 forward @7 unknown F #
-539 vertex $-1 -1 -1 $-1 $510 $575 #
-540 straight-curve $-1 -1 -1 $-1 -27.499999999999996 -9.5000000000000018 17.499999999999922 1.9825411154020729e-13 0 -1000 I I #
-541 straight-curve $-1 -1 -1 $-1 -27.499999999999996 -19.500000000000004 17.499999999999922 0 1000 0 I I #
-542 coedge $-1 -1 -1 $-1 $512 $557 $514 $546 forward $543 $-1 #
-543 loop $-1 -1 -1 $-1 $-1 $542 $576 F unknown #
-544 straight-curve $-1 -1 -1 $-1 -17.499999999999925 -19.500000000000004 27.499999999999993 0 1000 0 I I #
-545 coedge $-1 -1 -1 $-1 $577 $514 $578 $579 reversed $447 $-1 #
-546 edge $-1 -1 -1 $-1 $580 1 $515 0 $542 $581 forward @7 unknown F #
-547 point $-1 -1 -1 $-1 -17.499999999999925 -9.5000000000000018 27.499999999999993 #
-548 point $-1 -1 -1 $-1 -27.499999999999996 -9.5000000000000018 17.499999999999922 #
-549 coedge $-1 -1 -1 $-1 $582 $520 $583 $584 forward $389 $-1 #
-550 coedge $-1 -1 -1 $-1 $535 $534 $520 $551 reversed $478 $-1 #
-551 edge $-1 -1 -1 $-1 $552 1.5707963267948899 $585 3.1415926535898011 $520 $586 forward @7 unknown F #
-552 vertex $-1 -1 -1 $-1 $522 $587 #
-553 straight-curve $-1 -1 -1 $-1 -27.499999999999996 -19.500000000000004 17.499999999999922 1.9825411154020729e-13 0 -1000 I I #
-554 coedge $-1 -1 -1 $-1 $523 $582 $588 $589 forward $389 $-1 #
-555 coedge $-1 -1 -1 $-1 $590 $591 $523 $556 reversed $592 $-1 #
-556 edge $-1 -1 -1 $-1 $593 -1.5707963267949032 $558 7.460698725481057e-15 $523 $594 forward @7 unknown F #
-557 coedge $-1 -1 -1 $-1 $542 $524 $591 $595 forward $543 $-1 #
-558 vertex $-1 -1 -1 $-1 $556 $596 #
-559 straight-curve $-1 -1 -1 $-1 17.499999999999932 -19.500000000000004 27.5 -1000 0 -1.9825411154020731e-13 I I #
-560 point $-1 -1 -1 $-1 -17.499999999999925 -19.500000000000004 27.499999999999993 #
-561 point $-1 -1 -1 $-1 -27.499999999999996 -19.500000000000004 17.499999999999922 #
-562 integer_attrib-name_attrib-gen-attrib $-1 -1 $-1 $-1 $530 2 1 2 1 1 1 1 1 1 1 1 1 1 1 0 1 1 1 @8 Chamfer1 0 #
-563 face $597 -1 -1 $-1 $576 $592 $4 $-1 $598 forward single F T 0 1.0000000000000007 -7.460698725481057e-15 1.5707963267949032 #
-564 loop $-1 -1 -1 $-1 $-1 $599 $530 F unknown #
-565 plane-surface $-1 -1 -1 $-1 27.500000000000004 -19.500000000000004 17.499999999999929 -1 0 -1.9825411154020732e-16 -1.9825411154020731e-13 0 1000 forward_v I I I I #
-566 coedge $-1 -1 -1 $-1 $600 $601 $602 $603 forward $531 $-1 #
-567 coedge $-1 -1 -1 $-1 $583 $533 $601 $604 reversed $504 $-1 #
-568 coedge $-1 -1 -1 $-1 $533 $583 $534 $571 forward $504 $-1 #
-569 coedge $-1 -1 -1 $-1 $536 $602 $533 $570 reversed $447 $-1 #
-570 edge $-1 -1 -1 $-1 $572 1 $605 0 $533 $606 forward @7 unknown F #
-571 edge $-1 -1 -1 $-1 $585 0 $572 0.010000000000000002 $568 $607 forward @7 unknown F #
-572 vertex $-1 -1 -1 $-1 $537 $608 #
-573 ellipse-curve $-1 -1 -1 $-1 -17.499999999999993 -9.5000000000000018 -17.500000000000007 0 -1 0 0 0 9.9999999999999982 1 I I #
-574 straight-curve $-1 -1 -1 $-1 -27.499999999999989 -19.500000000000004 -17.49999999999994 0 1000 0 I I #
-575 point $-1 -1 -1 $-1 -27.499999999999989 -9.5000000000000018 -17.49999999999994 #
-576 face $609 -1 -1 $-1 $202 $543 $4 $-1 $610 reversed single F F #
-577 coedge $-1 -1 -1 $-1 $602 $545 $599 $611 reversed $447 $-1 #
-578 coedge $-1 -1 -1 $-1 $591 $590 $545 $579 forward $592 $-1 #
-579 edge $-1 -1 -1 $-1 $612 -1.5707963267949032 $580 7.460698725481057e-15 $578 $613 forward @7 unknown F #
-580 vertex $-1 -1 -1 $-1 $579 $614 #
-581 straight-curve $-1 -1 -1 $-1 17.499999999999932 -9.5000000000000018 27.5 -1000 0 -1.9825411154020731e-13 I I #
-582 coedge $-1 -1 -1 $-1 $554 $549 $615 $616 forward $389 $-1 #
-583 coedge $-1 -1 -1 $-1 $568 $567 $549 $584 reversed $504 $-1 #
-584 edge $-1 -1 -1 $-1 $585 1 $617 0 $549 $618 forward @7 unknown F #
-585 vertex $-1 -1 -1 $-1 $551 $619 #
-586 ellipse-curve $-1 -1 -1 $-1 -17.499999999999993 -19.500000000000004 -17.500000000000007 0 -1 0 0 0 9.9999999999999982 1 I I #
-587 point $-1 -1 -1 $-1 -27.499999999999989 -19.500000000000004 -17.49999999999994 #
-588 coedge $-1 -1 -1 $-1 $620 $621 $554 $589 reversed $564 $-1 #
-589 edge $-1 -1 -1 $-1 $622 1 $593 0 $554 $623 forward @7 unknown F #
-590 coedge $-1 -1 -1 $-1 $578 $555 $621 $624 forward $592 $-1 #
-591 coedge $-1 -1 -1 $-1 $555 $578 $557 $595 reversed $592 $-1 #
-592 loop $-1 -1 -1 $-1 $-1 $578 $563 F unknown #
-593 vertex $-1 -1 -1 $-1 $589 $625 #
-594 ellipse-curve $-1 -1 -1 $-1 17.500000000000007 -19.500000000000004 17.5 0 -1 0 0 0 9.9999999999999947 1 I I #
-595 edge $-1 -1 -1 $-1 $558 0 $580 0.010000000000000002 $557 $626 forward @7 unknown F #
-596 point $-1 -1 -1 $-1 17.499999999999932 -19.500000000000004 27.5 #
-597 integer_attrib-name_attrib-gen-attrib $-1 -1 $-1 $-1 $563 2 1 2 1 1 1 1 1 1 1 1 1 1 1 0 1 1 1 @8 Chamfer1 0 #
-598 cone-surface $-1 -1 -1 $-1 17.500000000000007 -19.500000000000004 17.5 0 1 0 0 0 9.9999999999999947 1 I I 0 1 9.9999999999999947 forward I I I I #
-599 coedge $-1 -1 -1 $-1 $621 $620 $577 $611 forward $564 $-1 #
-600 coedge $-1 -1 -1 $-1 $615 $566 $620 $627 reversed $531 $-1 #
-601 coedge $-1 -1 -1 $-1 $566 $615 $567 $604 forward $531 $-1 #
-602 coedge $-1 -1 -1 $-1 $569 $577 $566 $603 reversed $447 $-1 #
-603 edge $-1 -1 -1 $-1 $605 -3.1415926535897993 $628 -1.570796326794889 $566 $629 forward @7 unknown F #
-604 edge $-1 -1 -1 $-1 $617 0 $605 0.010000000000000002 $601 $630 forward @7 unknown F #
-605 vertex $-1 -1 -1 $-1 $570 $631 #
-606 straight-curve $-1 -1 -1 $-1 17.49999999999994 -9.5000000000000018 -27.500000000000004 1000 0 9.9127055770103657e-14 I I #
-607 straight-curve $-1 -1 -1 $-1 -17.499999999999918 -19.500000000000004 -27.500000000000007 0 1000 0 I I #
-608 point $-1 -1 -1 $-1 -17.499999999999918 -9.5000000000000018 -27.500000000000007 #
-609 integer_attrib-name_attrib-gen-attrib $-1 -1 $-1 $-1 $576 2 1 2 1 1 1 1 1 1 1 1 1 1 1 0 1 1 1 @8 Chamfer1 0 #
-610 plane-surface $-1 -1 -1 $-1 17.499999999999932 -19.500000000000004 27.5 1.9825411154020732e-16 0 -1 -1000 0 -1.9825411154020731e-13 forward_v I I I I #
-611 edge $-1 -1 -1 $-1 $628 1 $612 0 $599 $632 forward @7 unknown F #
-612 vertex $-1 -1 -1 $-1 $611 $633 #
-613 ellipse-curve $-1 -1 -1 $-1 17.500000000000007 -9.5000000000000018 17.5 0 -1 0 0 0 9.9999999999999947 1 I I #
-614 point $-1 -1 -1 $-1 17.499999999999932 -9.5000000000000018 27.5 #
-615 coedge $-1 -1 -1 $-1 $601 $600 $582 $616 reversed $531 $-1 #
-616 edge $-1 -1 -1 $-1 $617 -3.1415926535897993 $622 -1.570796326794889 $582 $634 forward @7 unknown F #
-617 vertex $-1 -1 -1 $-1 $584 $635 #
-618 straight-curve $-1 -1 -1 $-1 17.49999999999994 -19.500000000000004 -27.500000000000004 1000 0 9.9127055770103657e-14 I I #
-619 point $-1 -1 -1 $-1 -17.499999999999918 -19.500000000000004 -27.500000000000007 #
-620 coedge $-1 -1 -1 $-1 $599 $588 $600 $627 forward $564 $-1 #
-621 coedge $-1 -1 -1 $-1 $588 $599 $590 $624 reversed $564 $-1 #
-622 vertex $-1 -1 -1 $-1 $616 $636 #
-623 straight-curve $-1 -1 -1 $-1 27.500000000000004 -19.500000000000004 17.499999999999929 -1.9825411154020729e-13 0 1000 I I #
-624 edge $-1 -1 -1 $-1 $593 0 $612 0.010000000000000002 $590 $637 forward @7 unknown F #
-625 point $-1 -1 -1 $-1 27.500000000000004 -19.500000000000004 17.499999999999932 #
-626 straight-curve $-1 -1 -1 $-1 17.499999999999932 -19.500000000000004 27.5 0 1000 0 I I #
-627 edge $-1 -1 -1 $-1 $622 0 $628 0.010000000000000002 $620 $638 forward @7 unknown F #
-628 vertex $-1 -1 -1 $-1 $603 $639 #
-629 ellipse-curve $-1 -1 -1 $-1 17.500000000000007 -9.5000000000000018 -17.500000000000007 0 -1 0 0 0 9.9999999999999982 1 I I #
-630 straight-curve $-1 -1 -1 $-1 17.499999999999943 -19.500000000000004 -27.500000000000007 0 1000 0 I I #
-631 point $-1 -1 -1 $-1 17.499999999999943 -9.5000000000000018 -27.500000000000007 #
-632 straight-curve $-1 -1 -1 $-1 27.500000000000004 -9.5000000000000018 17.499999999999929 -1.9825411154020729e-13 0 1000 I I #
-633 point $-1 -1 -1 $-1 27.500000000000004 -9.5000000000000018 17.499999999999932 #
-634 ellipse-curve $-1 -1 -1 $-1 17.500000000000007 -19.500000000000004 -17.500000000000007 0 -1 0 0 0 9.9999999999999982 1 I I #
-635 point $-1 -1 -1 $-1 17.499999999999943 -19.500000000000004 -27.500000000000007 #
-636 point $-1 -1 -1 $-1 27.500000000000011 -19.500000000000004 -17.499999999999932 #
-637 straight-curve $-1 -1 -1 $-1 27.500000000000004 -19.500000000000004 17.499999999999932 0 1000 0 I I #
-638 straight-curve $-1 -1 -1 $-1 27.500000000000011 -19.500000000000004 -17.499999999999932 0 1000 0 I I #
-639 point $-1 -1 -1 $-1 27.500000000000011 -9.5000000000000018 -17.499999999999932 #
End-of-ACIS-data 