2700 0 1 0           
15 SolidWorks 2023 14 ACIS 27.0.2 NT 24 Wed Jan 17 13:43:03 2024 
1 9.9999999999999995e-07 1e-10 
T @52 D6W7R9_ZX82AJ6ZBBGV_GC3EK96MFMQWACUUSP7E39MDJP6WAD44 
-0 body $1 -1 -1 $-1 0 $2 $-1 $-1 F #
-1 name_attrib-gen-attrib $-1 -1 $-1 $-1 $0 2 1 1 1 1 1 1 1 1 1 1 1 1 1 0 1 1 1 @16 P001 - Sluitring #
-2 lump $3 -1 -1 $-1 $-1 $4 $0 F #
-3 rgb_color-st-attrib $-1 -1 $-1 $-1 $2 2 1 2 1 1 1 1 1 1 1 1 1 1 1 0 1 1 1 0.6470588235294118 0.51764705882352935 0 #
-4 shell $-1 -1 -1 $-1 $-1 $-1 $5 $-1 $2 F #
-5 face $6 -1 -1 $-1 $7 $8 $4 $-1 $9 reversed single F T 1.678231077471211 3.1415926535897931 -2.276505356533e-32 3.1415926535897931 #
-6 integer_attrib-name_attrib-gen-attrib $-1 -1 $-1 $-1 $5 2 1 2 1 1 1 1 1 1 1 1 1 1 1 0 1 1 1 @8 Revolve1 0 #
-7 face $10 -1 -1 $-1 $11 $12 $4 $-1 $13 reversed single F T 1.4735765010935467 3.1415926535897931 0 3.1415926535897931 #
-8 loop $-1 -1 -1 $-1 $-1 $14 $5 F unknown #
-9 torus-surface $-1 -1 -1 $-1 1.7347234759768071e-15 1 0 0 1 0 8.6737916651043214 0.10000000000003932 0 0 1 forward_v I I I I #
-10 integer_attrib-name_attrib-gen-attrib $-1 -1 $-1 $-1 $7 2 1 2 1 1 1 1 1 1 1 1 1 1 1 0 1 1 1 @8 Revolve1 0 #
-11 face $15 -1 -1 $-1 $16 $17 $4 $-1 $18 reversed single F T 1.4735765010935467 3.1415926535897931 -3.1415926535897931 0 #
-12 loop $-1 -1 -1 $-1 $-1 $19 $7 F unknown #
-13 torus-surface $-1 -1 -1 $-1 1.7347234759768071e-15 -1 0 0 1 0 8.6737916651043214 0.099999999999971625 0 0 1 forward_v I I I I #
-14 coedge $-1 -1 -1 $-1 $20 $21 $22 $23 forward $8 $-1 #
-15 integer_attrib-name_attrib-gen-attrib $-1 -1 $-1 $-1 $11 2 1 2 1 1 1 1 1 1 1 1 1 1 1 0 1 1 1 @8 Revolve1 0 #
-16 face $24 -1 -1 $-1 $25 $26 $4 $-1 $27 reversed single F T 1.678231077471211 3.1415926535897931 -3.1415926535897931 0 #
-17 loop $-1 -1 -1 $-1 $-1 $28 $11 F unknown #
-18 torus-surface $-1 -1 -1 $-1 1.7347234759768071e-15 -1 0 0 1 0 8.6737916651043214 0.099999999999971625 0 0 1 forward_v I I I I #
-19 coedge $-1 -1 -1 $-1 $29 $30 $31 $32 forward $12 $-1 #
-20 coedge $-1 -1 -1 $-1 $33 $14 $34 $35 forward $8 $-1 #
-21 coedge $-1 -1 -1 $-1 $14 $33 $36 $37 reversed $8 $-1 #
-22 coedge $-1 -1 -1 $-1 $38 $39 $14 $23 reversed $26 $-1 #
-23 edge $-1 -1 -1 $-1 $40 1.678231077471211 $41 3.1415926535897931 $14 $42 forward @7 unknown F #
-24 integer_attrib-name_attrib-gen-attrib $-1 -1 $-1 $-1 $16 2 1 2 1 1 1 1 1 1 1 1 1 1 1 0 1 1 1 @8 Revolve1 0 #
-25 face $43 -1 -1 $-1 $44 $45 $4 $-1 $46 forward single F T 0.11254221316376473 0.400580771432687 1.0012176440809529e-16 3.1415926535897931 #
-26 loop $-1 -1 -1 $-1 $-1 $47 $16 F unknown #
-27 torus-surface $-1 -1 -1 $-1 1.7347234759768071e-15 1 0 0 1 0 8.6737916651043214 0.10000000000003932 0 0 1 forward_v I I I I #
-28 coedge $-1 -1 -1 $-1 $48 $49 $50 $51 forward $17 $-1 #
-29 coedge $-1 -1 -1 $-1 $50 $19 $52 $53 forward $12 $-1 #
-30 coedge $-1 -1 -1 $-1 $19 $50 $54 $55 reversed $12 $-1 #
-31 coedge $-1 -1 -1 $-1 $49 $48 $19 $32 reversed $17 $-1 #
-32 edge $-1 -1 -1 $-1 $56 1.4735765010935649 $57 3.1415926535897931 $19 $58 forward @7 unknown F #
-33 coedge $-1 -1 -1 $-1 $21 $20 $47 $59 reversed $8 $-1 #
-34 coedge $-1 -1 -1 $-1 $60 $61 $20 $35 reversed $62 $-1 #
-35 edge $-1 -1 -1 $-1 $41 0 $63 3.1415926535897931 $20 $64 forward @7 unknown F #
-36 coedge $-1 -1 -1 $-1 $65 $66 $21 $37 forward $45 $-1 #
-37 edge $-1 -1 -1 $-1 $40 9.0438956964655188e-17 $67 3.1415926535897931 $36 $68 forward @7 unknown F #
-38 coedge $-1 -1 -1 $-1 $47 $22 $69 $70 reversed $26 $-1 #
-39 coedge $-1 -1 -1 $-1 $22 $47 $71 $72 forward $26 $-1 #
-40 vertex $-1 -1 -1 $-1 $73 $74 #
-41 vertex $-1 -1 -1 $-1 $35 $75 #
-42 ellipse-curve $-1 -1 -1 $-1 1.7347234759768071e-15 1 8.6737916651043214 -1 0 0 0 0 0.10000000000003929 1 I I #
-43 integer_attrib-name_attrib-gen-attrib $-1 -1 $-1 $-1 $25 2 1 2 1 1 1 1 1 1 1 1 1 1 1 0 1 1 1 @8 Revolve1 0 #
-44 face $76 -1 -1 $-1 $77 $78 $4 $-1 $79 reversed single F T -3.1415926535897931 -1.4735765010935413 -3.1415926535897931 0 #
-45 loop $-1 -1 -1 $-1 $-1 $36 $25 F unknown #
-46 torus-surface $-1 -1 -1 $-1 0 0 0 0 1 0 -1.0646396710154593 9.7896396710154576 0 0 1 forward_v I I I I #
-47 coedge $-1 -1 -1 $-1 $39 $38 $33 $59 forward $26 $-1 #
-48 coedge $-1 -1 -1 $-1 $31 $28 $80 $81 forward $17 $-1 #
-49 coedge $-1 -1 -1 $-1 $28 $31 $82 $83 reversed $17 $-1 #
-50 coedge $-1 -1 -1 $-1 $30 $29 $28 $51 reversed $12 $-1 #
-51 edge $-1 -1 -1 $-1 $84 1.4735765010935649 $85 3.1415926535897931 $28 $86 forward @7 unknown F #
-52 coedge $-1 -1 -1 $-1 $87 $88 $29 $53 reversed $89 $-1 #
-53 edge $-1 -1 -1 $-1 $57 0 $85 3.1415926535897931 $29 $90 forward @7 unknown F #
-54 coedge $-1 -1 -1 $-1 $91 $92 $30 $55 forward $93 $-1 #
-55 edge $-1 -1 -1 $-1 $56 9.0226183020782709e-17 $84 3.1415926535897931 $54 $94 forward @7 unknown F #
-56 vertex $-1 -1 -1 $-1 $95 $96 #
-57 vertex $-1 -1 -1 $-1 $53 $97 #
-58 ellipse-curve $-1 -1 -1 $-1 1.7347234759768071e-15 -1 8.6737916651043214 -1 0 0 0 0 0.099999999999971639 1 I I #
-59 edge $-1 -1 -1 $-1 $67 1.678231077471211 $63 3.1415926535897931 $47 $98 forward @7 unknown F #
-60 coedge $-1 -1 -1 $-1 $99 $34 $100 $101 forward $62 $-1 #
-61 coedge $-1 -1 -1 $-1 $34 $99 $102 $103 reversed $62 $-1 #
-62 loop $-1 -1 -1 $-1 $-1 $34 $104 F unknown #
-63 vertex $-1 -1 -1 $-1 $35 $105 #
-64 ellipse-curve $-1 -1 -1 $-1 1.7347234759768071e-15 1 0 0 1 0 0 0 8.5737916651042809 1 I I #
-65 coedge $-1 -1 -1 $-1 $106 $36 $107 $108 forward $45 $-1 #
-66 coedge $-1 -1 -1 $-1 $36 $106 $109 $73 reversed $45 $-1 #
-67 vertex $-1 -1 -1 $-1 $108 $110 #
-68 ellipse-curve $-1 -1 -1 $-1 9.5124456548749811e-16 1.099423443599592 0 0 1 0 0 0 8.6630688453815683 1 I I #
-69 coedge $-1 -1 -1 $-1 $109 $107 $38 $70 forward $111 $-1 #
-70 edge $-1 -1 -1 $-1 $67 -3.1415926535897931 $40 9.0438956964655188e-17 $69 $112 forward @7 unknown F #
-71 coedge $-1 -1 -1 $-1 $102 $100 $39 $72 reversed $78 $-1 #
-72 edge $-1 -1 -1 $-1 $63 -3.1415926535897931 $41 0 $39 $113 forward @7 unknown F #
-73 edge $-1 -1 -1 $-1 $40 0.11254221316376473 $114 0.400580771432687 $109 $115 forward @7 unknown F #
-74 point $-1 -1 -1 $-1 1.7347234759768071e-15 1.099423443599592 8.6630688453815701 #
-75 point $-1 -1 -1 $-1 1.7347234759768071e-15 1 8.5737916651042809 #
-76 integer_attrib-name_attrib-gen-attrib $-1 -1 $-1 $-1 $44 2 1 2 1 1 1 1 1 1 1 1 1 1 1 0 1 1 1 @8 Revolve1 0 #
-77 face $116 -1 -1 $-1 $117 $93 $4 $-1 $118 forward single F T -0.092112363213933707 0.092112363213926823 9.9886209914815175e-17 3.1415926535897931 #
-78 loop $-1 -1 -1 $-1 $-1 $71 $44 F unknown #
-79 torus-surface $-1 -1 -1 $-1 1.7347234759768071e-15 1 0 0 1 0 8.6737916651043214 0.10000000000003932 0 0 1 forward_v I I I I #
-80 coedge $-1 -1 -1 $-1 $119 $120 $48 $81 reversed $121 $-1 #
-81 edge $-1 -1 -1 $-1 $85 -3.1415926535897931 $57 0 $48 $122 forward @7 unknown F #
-82 coedge $-1 -1 -1 $-1 $123 $124 $49 $83 forward $125 $-1 #
-83 edge $-1 -1 -1 $-1 $84 -3.1415926535897931 $56 9.0226183020782709e-17 $82 $126 forward @7 unknown F #
-84 vertex $-1 -1 -1 $-1 $127 $128 #
-85 vertex $-1 -1 -1 $-1 $53 $129 #
-86 ellipse-curve $-1 -1 -1 $-1 2.7969565958909066e-15 -1 -8.6737916651043214 1 0 1.2246467991473532e-16 1.2246467991470192e-17 0 -0.099999999999971639 1 I I #
-87 coedge $-1 -1 -1 $-1 $130 $52 $120 $131 forward $89 $-1 #
-88 coedge $-1 -1 -1 $-1 $52 $130 $119 $132 reversed $89 $-1 #
-89 loop $-1 -1 -1 $-1 $-1 $52 $133 F unknown #
-90 ellipse-curve $-1 -1 -1 $-1 1.7347234759768071e-15 -1 0 0 1 0 0 0 8.5737916651043484 1 I I #
-91 coedge $-1 -1 -1 $-1 $134 $54 $124 $127 forward $93 $-1 #
-92 coedge $-1 -1 -1 $-1 $54 $134 $123 $95 reversed $93 $-1 #
-93 loop $-1 -1 -1 $-1 $-1 $54 $77 F unknown #
-94 ellipse-curve $-1 -1 -1 $-1 9.5124456548749811e-16 -0.90047221261554655 0 0 1 0 0 0 8.6834983400421848 1 I I #
-95 edge $-1 -1 -1 $-1 $56 -0.092112363213933707 $135 0.092112363213926823 $123 $136 forward @7 unknown F #
-96 point $-1 -1 -1 $-1 1.7347234759768071e-15 -0.90047221261554655 8.683498340042183 #
-97 point $-1 -1 -1 $-1 1.7347234759768071e-15 -1 8.5737916651043484 #
-98 ellipse-curve $-1 -1 -1 $-1 2.7969565958909066e-15 1 -8.6737916651043214 1 0 1.2246467991473532e-16 1.2246467991478281e-17 0 -0.10000000000003929 1 I I #
-99 coedge $-1 -1 -1 $-1 $61 $60 $134 $137 forward $62 $-1 #
-100 coedge $-1 -1 -1 $-1 $71 $138 $60 $101 reversed $78 $-1 #
-101 edge $-1 -1 -1 $-1 $41 -3.1415926535897931 $135 -1.4735765010935413 $60 $139 forward @7 unknown F #
-102 coedge $-1 -1 -1 $-1 $138 $71 $61 $103 forward $78 $-1 #
-103 edge $-1 -1 -1 $-1 $63 -3.1415926535897931 $140 -1.4735765010935413 $102 $141 forward @7 unknown F #
-104 face $142 -1 -1 $-1 $143 $62 $4 $-1 $144 reversed single F T -3.1415926535897931 -1.4735765010935413 -9.0226183020782635e-17 3.1415926535897931 #
-105 point $-1 -1 -1 $-1 2.7847101278994285e-15 1 -8.5737916651042809 #
-106 coedge $-1 -1 -1 $-1 $66 $65 $145 $146 reversed $45 $-1 #
-107 coedge $-1 -1 -1 $-1 $69 $147 $65 $108 reversed $111 $-1 #
-108 edge $-1 -1 -1 $-1 $67 0.11254221316376473 $148 0.400580771432687 $65 $149 forward @7 unknown F #
-109 coedge $-1 -1 -1 $-1 $147 $69 $66 $73 forward $111 $-1 #
-110 point $-1 -1 -1 $-1 2.795643429205776e-15 1.099423443599592 -8.6630688453815701 #
-111 loop $-1 -1 -1 $-1 $-1 $107 $143 F unknown #
-112 ellipse-curve $-1 -1 -1 $-1 9.5124456548749811e-16 1.099423443599592 0 0 1 0 0 0 8.6630688453815683 1 I I #
-113 ellipse-curve $-1 -1 -1 $-1 1.7347234759768071e-15 1 0 0 1 0 0 0 8.5737916651042809 1 I I #
-114 vertex $-1 -1 -1 $-1 $73 $150 #
-115 ellipse-curve $-1 -1 -1 $-1 8.6736173798840355e-16 0 -1.0646396710154593 -1 0 0 0 0 9.7896396710154576 1 I I #
-116 integer_attrib-name_attrib-gen-attrib $-1 -1 $-1 $-1 $77 2 1 2 1 1 1 1 1 1 1 1 1 1 1 0 1 1 1 @8 Revolve1 0 #
-117 face $151 -1 -1 $-1 $152 $121 $4 $-1 $153 reversed single F T -3.1415926535897931 -1.6782310774712306 -3.1415926535897931 0 #
-118 torus-surface $-1 -1 -1 $-1 0 0 0 0 1 0 -1.0646396710154593 9.7896396710154576 0 0 1 forward_v I I I I #
-119 coedge $-1 -1 -1 $-1 $154 $80 $88 $132 forward $121 $-1 #
-120 coedge $-1 -1 -1 $-1 $80 $154 $87 $131 reversed $121 $-1 #
-121 loop $-1 -1 -1 $-1 $-1 $80 $117 F unknown #
-122 ellipse-curve $-1 -1 -1 $-1 1.7347234759768071e-15 -1 0 0 1 0 0 0 8.5737916651043484 1 I I #
-123 coedge $-1 -1 -1 $-1 $155 $82 $92 $95 forward $125 $-1 #
-124 coedge $-1 -1 -1 $-1 $82 $155 $91 $127 reversed $125 $-1 #
-125 loop $-1 -1 -1 $-1 $-1 $124 $156 F unknown #
-126 ellipse-curve $-1 -1 -1 $-1 9.5124456548749811e-16 -0.90047221261554655 0 0 1 0 0 0 8.6834983400421848 1 I I #
-127 edge $-1 -1 -1 $-1 $84 -0.092112363213933707 $140 0.092112363213926823 $91 $157 forward @7 unknown F #
-128 point $-1 -1 -1 $-1 2.7981453207302087e-15 -0.90047221261554655 -8.683498340042183 #
-129 point $-1 -1 -1 $-1 2.7847101278994364e-15 -1 -8.5737916651043484 #
-130 coedge $-1 -1 -1 $-1 $88 $87 $158 $159 forward $89 $-1 #
-131 edge $-1 -1 -1 $-1 $57 -3.1415926535897931 $160 -1.6782310774712306 $87 $161 forward @7 unknown F #
-132 edge $-1 -1 -1 $-1 $85 -3.1415926535897931 $162 -1.6782310774712306 $119 $163 forward @7 unknown F #
-133 face $164 -1 -1 $-1 $156 $89 $4 $-1 $165 reversed single F T -3.1415926535897931 -1.6782310774712306 -1.0012176440809522e-16 3.1415926535897931 #
-134 coedge $-1 -1 -1 $-1 $92 $91 $99 $137 reversed $93 $-1 #
-135 vertex $-1 -1 -1 $-1 $101 $166 #
-136 ellipse-curve $-1 -1 -1 $-1 8.6736173798840355e-16 0 -1.0646396710154593 -1 0 0 0 0 9.7896396710154576 1 I I #
-137 edge $-1 -1 -1 $-1 $135 0 $140 3.1415926535897931 $99 $167 forward @7 unknown F #
-138 coedge $-1 -1 -1 $-1 $100 $102 $155 $168 forward $78 $-1 #
-139 ellipse-curve $-1 -1 -1 $-1 1.7347234759768071e-15 1 8.6737916651043214 -1 0 0 0 0 0.10000000000003929 1 I I #
-140 vertex $-1 -1 -1 $-1 $103 $169 #
-141 ellipse-curve $-1 -1 -1 $-1 2.7969565958909066e-15 1 -8.6737916651043214 1 0 1.2246467991473532e-16 1.2246467991478281e-17 0 -0.10000000000003929 1 I I #
-142 integer_attrib-name_attrib-gen-attrib $-1 -1 $-1 $-1 $104 2 1 2 1 1 1 1 1 1 1 1 1 1 1 0 1 1 1 @8 Revolve1 0 #
-143 face $170 -1 -1 $-1 $-1 $111 $4 $-1 $171 forward single F T 0.11254221316376473 0.400580771432687 -3.1415926535897931 2.0024352881619059e-16 #
-144 torus-surface $-1 -1 -1 $-1 1.7347234759768071e-15 1 0 0 1 0 8.6737916651043214 0.10000000000003932 0 0 1 forward_v I I I I #
-145 coedge $-1 -1 -1 $-1 $172 $173 $106 $146 forward $174 $-1 #
-146 edge $-1 -1 -1 $-1 $114 -1.0551299056489888e-17 $148 3.1415926535897931 $145 $175 forward @7 unknown F #
-147 coedge $-1 -1 -1 $-1 $107 $109 $176 $177 reversed $111 $-1 #
-148 vertex $-1 -1 -1 $-1 $108 $178 #
-149 ellipse-curve $-1 -1 -1 $-1 7.3698098145296624e-16 0 1.0646396710154593 1 0 1.2246467991473532e-16 1.1988850887915029e-15 0 -9.7896396710154576 1 I I #
-150 point $-1 -1 -1 $-1 8.6736173798840355e-16 3.8175013412013308 7.9499999999999984 #
-151 integer_attrib-name_attrib-gen-attrib $-1 -1 $-1 $-1 $117 2 1 2 1 1 1 1 1 1 1 1 1 1 1 0 1 1 1 @8 Revolve1 0 #
-152 face $179 -1 -1 $-1 $180 $181 $4 $-1 $182 forward single F T -0.400580771432687 -0.11254221316375754 1.0012176440809522e-16 3.1415926535897931 #
-153 torus-surface $-1 -1 -1 $-1 1.7347234759768071e-15 -1 0 0 1 0 8.6737916651043214 0.099999999999971625 0 0 1 forward_v I I I I #
-154 coedge $-1 -1 -1 $-1 $120 $119 $183 $184 forward $121 $-1 #
-155 coedge $-1 -1 -1 $-1 $124 $123 $138 $168 reversed $125 $-1 #
-156 face $185 -1 -1 $-1 $104 $125 $4 $-1 $186 forward single F T -0.092112363213933707 0.092112363213926823 -3.1415926535897931 1.997724198296305e-16 #
-157 ellipse-curve $-1 -1 -1 $-1 7.3698098145296624e-16 0 1.0646396710154593 1 0 1.2246467991473532e-16 1.1988850887915029e-15 0 -9.7896396710154576 1 I I #
-158 coedge $-1 -1 -1 $-1 $187 $188 $130 $159 reversed $181 $-1 #
-159 edge $-1 -1 -1 $-1 $160 -9.6828074434400759e-18 $162 3.1415926535897931 $130 $189 forward @7 unknown F #
-160 vertex $-1 -1 -1 $-1 $131 $190 #
-161 ellipse-curve $-1 -1 -1 $-1 1.7347234759768071e-15 -1 8.6737916651043214 -1 0 0 0 0 0.099999999999971639 1 I I #
-162 vertex $-1 -1 -1 $-1 $132 $191 #
-163 ellipse-curve $-1 -1 -1 $-1 2.7969565958909066e-15 -1 -8.6737916651043214 1 0 1.2246467991473532e-16 1.2246467991470192e-17 0 -0.099999999999971639 1 I I #
-164 integer_attrib-name_attrib-gen-attrib $-1 -1 $-1 $-1 $133 2 1 2 1 1 1 1 1 1 1 1 1 1 1 0 1 1 1 @8 Revolve1 0 #
-165 torus-surface $-1 -1 -1 $-1 1.7347234759768071e-15 -1 0 0 1 0 8.6737916651043214 0.099999999999971625 0 0 1 forward_v I I I I #
-166 point $-1 -1 -1 $-1 9.5124456548749811e-16 0.90047221261547972 8.6834983400421919 #
-167 ellipse-curve $-1 -1 -1 $-1 9.5124456548749811e-16 0.90047221261547972 0 0 1 0 0 0 8.6834983400421919 1 I I #
-168 edge $-1 -1 -1 $-1 $140 -3.1415926535897931 $135 0 $138 $192 forward @7 unknown F #
-169 point $-1 -1 -1 $-1 1.9307835827418063e-15 0.90047221261547972 -8.6834983400421919 #
-170 integer_attrib-name_attrib-gen-attrib $-1 -1 $-1 $-1 $143 2 1 2 1 1 1 1 1 1 1 1 1 1 1 0 1 1 1 @8 Revolve1 0 #
-171 torus-surface $-1 -1 -1 $-1 0 0 0 0 1 0 -1.0646396710154593 9.7896396710154576 0 0 1 forward_v I I I I #
-172 coedge $-1 -1 -1 $-1 $193 $145 $194 $195 forward $174 $-1 #
-173 coedge $-1 -1 -1 $-1 $145 $193 $196 $197 reversed $174 $-1 #
-174 loop $-1 -1 -1 $-1 $-1 $145 $198 F unknown #
-175 ellipse-curve $-1 -1 -1 $-1 9.5124456548749811e-16 3.8175013412013308 0 0 1 0 0 0 7.9499999999999966 1 I I #
-176 coedge $-1 -1 -1 $-1 $196 $194 $147 $177 forward $199 $-1 #
-177 edge $-1 -1 -1 $-1 $148 -3.1415926535897931 $114 -1.0551299056489888e-17 $176 $200 forward @7 unknown F #
-178 point $-1 -1 -1 $-1 1.8409559433105492e-15 3.8175013412013308 -7.9499999999999984 #
-179 integer_attrib-name_attrib-gen-attrib $-1 -1 $-1 $-1 $152 2 1 2 1 1 1 1 1 1 1 1 1 1 1 0 1 1 1 @8 Revolve1 0 #
-180 face $201 -1 -1 $-1 $202 $203 $4 $-1 $204 forward single F T -2.7410118821571077 -0.400580771432687 0 3.1415926535897931 #
-181 loop $-1 -1 -1 $-1 $-1 $205 $152 F unknown #
-182 torus-surface $-1 -1 -1 $-1 0 0 0 0 1 0 -1.0646396710154593 9.7896396710154576 0 0 1 forward_v I I I I #
-183 coedge $-1 -1 -1 $-1 $206 $207 $154 $184 reversed $208 $-1 #
-184 edge $-1 -1 -1 $-1 $162 -3.1415926535897931 $160 -9.6828074434400759e-18 $154 $209 forward @7 unknown F #
-185 integer_attrib-name_attrib-gen-attrib $-1 -1 $-1 $-1 $156 2 1 2 1 1 1 1 1 1 1 1 1 1 1 0 1 1 1 @8 Revolve1 0 #
-186 torus-surface $-1 -1 -1 $-1 0 0 0 0 1 0 -1.0646396710154593 9.7896396710154576 0 0 1 forward_v I I I I #
-187 coedge $-1 -1 -1 $-1 $205 $158 $207 $210 reversed $181 $-1 #
-188 coedge $-1 -1 -1 $-1 $158 $205 $206 $211 forward $181 $-1 #
-189 ellipse-curve $-1 -1 -1 $-1 9.5124456548749811e-16 -1.0994234435995216 0 0 1 0 0 0 8.6630688453815754 1 I I #
-190 point $-1 -1 -1 $-1 8.6736173798840355e-16 -1.0994234435995216 8.6630688453815754 #
-191 point $-1 -1 -1 $-1 1.928281691217374e-15 -1.0994234435995216 -8.6630688453815754 #
-192 ellipse-curve $-1 -1 -1 $-1 9.5124456548749811e-16 0.90047221261547972 0 0 1 0 0 0 8.6834983400421919 1 I I #
-193 coedge $-1 -1 -1 $-1 $173 $172 $212 $213 reversed $174 $-1 #
-194 coedge $-1 -1 -1 $-1 $176 $214 $172 $195 reversed $199 $-1 #
-195 edge $-1 -1 -1 $-1 $148 0.400580771432687 $215 2.7410118821571077 $172 $216 forward @7 unknown F #
-196 coedge $-1 -1 -1 $-1 $214 $176 $173 $197 forward $199 $-1 #
-197 edge $-1 -1 -1 $-1 $114 0.400580771432687 $217 2.7410118821571077 $196 $218 forward @7 unknown F #
-198 face $219 -1 -1 $-1 $220 $174 $4 $-1 $221 forward single F T 0.400580771432687 2.7410118821571077 0 3.1415926535897931 #
-199 loop $-1 -1 -1 $-1 $-1 $194 $220 F unknown #
-200 ellipse-curve $-1 -1 -1 $-1 9.5124456548749811e-16 3.8175013412013308 0 0 1 0 0 0 7.9499999999999966 1 I I #
-201 integer_attrib-name_attrib-gen-attrib $-1 -1 $-1 $-1 $180 2 1 2 1 1 1 1 1 1 1 1 1 1 1 0 1 1 1 @8 Revolve1 0 #
-202 face $222 -1 -1 $-1 $198 $223 $4 $-1 $224 reversed single F T -1.0112586334308162 0 -3.1415926535897931 0 #
-203 loop $-1 -1 -1 $-1 $-1 $225 $180 F unknown #
-204 torus-surface $-1 -1 -1 $-1 8.6736173798840355e-16 -3.7328057464683404 0 0 1 0 7.7499999999999991 0.21719425353166036 0 0 1 forward_v I I I I #
-205 coedge $-1 -1 -1 $-1 $188 $187 $226 $227 forward $181 $-1 #
-206 coedge $-1 -1 -1 $-1 $228 $183 $188 $211 reversed $208 $-1 #
-207 coedge $-1 -1 -1 $-1 $183 $228 $187 $210 forward $208 $-1 #
-208 loop $-1 -1 -1 $-1 $-1 $206 $229 F unknown #
-209 ellipse-curve $-1 -1 -1 $-1 9.5124456548749811e-16 -1.0994234435995216 0 0 1 0 0 0 8.6630688453815754 1 I I #
-210 edge $-1 -1 -1 $-1 $230 -0.400580771432687 $160 -0.11254221316375754 $207 $231 forward @7 unknown F #
-211 edge $-1 -1 -1 $-1 $232 -0.400580771432687 $162 -0.11254221316375754 $188 $233 forward @7 unknown F #
-212 coedge $-1 -1 -1 $-1 $234 $235 $193 $213 forward $236 $-1 #
-213 edge $-1 -1 -1 $-1 $217 0 $215 3.1415926535897931 $212 $237 forward @7 unknown F #
-214 coedge $-1 -1 -1 $-1 $194 $196 $238 $239 reversed $199 $-1 #
-215 vertex $-1 -1 -1 $-1 $240 $241 #
-216 ellipse-curve $-1 -1 -1 $-1 1.8164630073276021e-15 3.7328057464683404 -7.7499999999999991 1 0 1.2246467991473532e-16 2.6598624738074697e-17 0 -0.2171942535316605 1 I I #
-217 vertex $-1 -1 -1 $-1 $242 $243 #
-218 ellipse-curve $-1 -1 -1 $-1 8.6736173798840355e-16 3.7328057464683404 7.7499999999999991 -1 0 0 0 0 0.2171942535316605 1 I I #
-219 integer_attrib-name_attrib-gen-attrib $-1 -1 $-1 $-1 $198 2 1 2 1 1 1 1 1 1 1 1 1 1 1 0 1 1 1 @8 Revolve1 0 #
-220 face $244 -1 -1 $-1 $245 $199 $4 $-1 $246 forward single F T 0.400580771432687 2.7410118821571077 -3.1415926535897931 1.1110308278025772e-17 #
-221 torus-surface $-1 -1 -1 $-1 8.6736173798840355e-16 3.7328057464683404 0 0 1 0 7.7499999999999991 0.21719425353166036 0 0 1 forward_v I I I I #
-222 integer_attrib-name_attrib-gen-attrib $-1 -1 $-1 $-1 $202 2 1 2 1 1 1 1 1 1 1 1 1 1 1 0 1 1 1 @8 Revolve1 0 #
-223 loop $-1 -1 -1 $-1 $-1 $247 $202 F unknown #
-224 cone-surface $-1 -1 -1 $-1 9.5124456548749811e-16 3.8175013412013308 0 0 1 0 0 0 7.5499999999999989 1 I I 0 1 7.5499999999999989 forward I I I I #
-225 coedge $-1 -1 -1 $-1 $248 $249 $250 $251 forward $203 $-1 #
-226 coedge $-1 -1 -1 $-1 $249 $248 $205 $227 reversed $203 $-1 #
-227 edge $-1 -1 -1 $-1 $230 -1.0551299056489885e-17 $232 3.1415926535897931 $205 $252 forward @7 unknown F #
-228 coedge $-1 -1 -1 $-1 $207 $206 $253 $254 forward $208 $-1 #
-229 face $255 -1 -1 $-1 $133 $208 $4 $-1 $256 forward single F T -0.400580771432687 -0.11254221316375754 -3.1415926535897931 1.0910210540734638e-16 #
-230 vertex $-1 -1 -1 $-1 $210 $257 #
-231 ellipse-curve $-1 -1 -1 $-1 8.6736173798840355e-16 0 -1.0646396710154593 -1 0 0 0 0 9.7896396710154576 1 I I #
-232 vertex $-1 -1 -1 $-1 $211 $258 #
-233 ellipse-curve $-1 -1 -1 $-1 7.3698098145296624e-16 0 1.0646396710154593 1 0 1.2246467991473532e-16 1.1988850887915029e-15 0 -9.7896396710154576 1 I I #
-234 coedge $-1 -1 -1 $-1 $250 $212 $259 $240 reversed $236 $-1 #
-235 coedge $-1 -1 -1 $-1 $212 $250 $260 $242 forward $236 $-1 #
-236 loop $-1 -1 -1 $-1 $-1 $234 $245 F unknown #
-237 ellipse-curve $-1 -1 -1 $-1 9.5124456548749811e-16 3.8175013412013308 0 0 1 0 0 0 7.5499999999999989 1 I I #
-238 coedge $-1 -1 -1 $-1 $260 $259 $214 $239 forward $223 $-1 #
-239 edge $-1 -1 -1 $-1 $215 -3.1415926535897931 $217 0 $238 $261 forward @7 unknown F #
-240 edge $-1 -1 -1 $-1 $262 -0.0076350026824026614 $215 0 $259 $263 forward @7 unknown F #
-241 point $-1 -1 -1 $-1 1.8164630073276021e-15 3.8175013412013308 -7.5499999999999989 #
-242 edge $-1 -1 -1 $-1 $264 -0.0076350026824026614 $217 0 $235 $265 forward @7 unknown F #
-243 point $-1 -1 -1 $-1 9.5124456548749811e-16 3.8175013412013308 7.5499999999999989 #
-244 integer_attrib-name_attrib-gen-attrib $-1 -1 $-1 $-1 $220 2 1 2 1 1 1 1 1 1 1 1 1 1 1 0 1 1 1 @8 Revolve1 0 #
-245 face $266 -1 -1 $-1 $267 $236 $4 $-1 $268 reversed single F T -1.0112586334308162 0 0 3.1415926535897931 #
-246 torus-surface $-1 -1 -1 $-1 8.6736173798840355e-16 3.7328057464683404 0 0 1 0 7.7499999999999991 0.21719425353166036 0 0 1 forward_v I I I I #
-247 coedge $-1 -1 -1 $-1 $259 $260 $269 $270 reversed $223 $-1 #
-248 coedge $-1 -1 -1 $-1 $226 $225 $271 $272 forward $203 $-1 #
-249 coedge $-1 -1 -1 $-1 $225 $226 $273 $274 reversed $203 $-1 #
-250 coedge $-1 -1 -1 $-1 $235 $234 $225 $251 reversed $236 $-1 #
-251 edge $-1 -1 -1 $-1 $264 0 $262 3.1415926535897931 $225 $275 forward @7 unknown F #
-252 ellipse-curve $-1 -1 -1 $-1 9.5124456548749811e-16 -3.8175013412013308 0 0 1 0 0 0 7.9499999999999984 1 I I #
-253 coedge $-1 -1 -1 $-1 $271 $273 $228 $254 reversed $276 $-1 #
-254 edge $-1 -1 -1 $-1 $232 -3.1415926535897931 $230 -1.0551299056489885e-17 $228 $277 forward @7 unknown F #
-255 integer_attrib-name_attrib-gen-attrib $-1 -1 $-1 $-1 $229 2 1 2 1 1 1 1 1 1 1 1 1 1 1 0 1 1 1 @8 Revolve1 0 #
-256 torus-surface $-1 -1 -1 $-1 0 0 0 0 1 0 -1.0646396710154593 9.7896396710154576 0 0 1 forward_v I I I I #
-257 point $-1 -1 -1 $-1 8.6736173798840355e-16 -3.8175013412013308 7.9499999999999984 #
-258 point $-1 -1 -1 $-1 1.8409559433105492e-15 -3.8175013412013308 -7.9499999999999984 #
-259 coedge $-1 -1 -1 $-1 $238 $247 $234 $240 forward $223 $-1 #
-260 coedge $-1 -1 -1 $-1 $247 $238 $235 $242 reversed $223 $-1 #
-261 ellipse-curve $-1 -1 -1 $-1 9.5124456548749811e-16 3.8175013412013308 0 0 1 0 0 0 7.5499999999999989 1 I I #
-262 vertex $-1 -1 -1 $-1 $272 $278 #
-263 straight-curve $-1 -1 -1 $-1 1.8758528988437498e-15 3.8175013412013308 -7.5499999999999989 0 1000 0 I I #
-264 vertex $-1 -1 -1 $-1 $274 $279 #
-265 straight-curve $-1 -1 -1 $-1 9.5124456548749811e-16 3.8175013412013308 7.5499999999999989 0 1000 0 I I #
-266 integer_attrib-name_attrib-gen-attrib $-1 -1 $-1 $-1 $245 2 1 2 1 1 1 1 1 1 1 1 1 1 1 0 1 1 1 @8 Revolve1 0 #
-267 face $280 -1 -1 $-1 $229 $276 $4 $-1 $281 forward single F T -2.7410118821571077 -0.400580771432687 -3.1415926535897931 1.1110308278025772e-17 #
-268 cone-surface $-1 -1 -1 $-1 9.5124456548749811e-16 3.8175013412013308 0 0 1 0 0 0 7.5499999999999989 1 I I 0 1 7.5499999999999989 forward I I I I #
-269 coedge $-1 -1 -1 $-1 $273 $271 $247 $270 forward $276 $-1 #
-270 edge $-1 -1 -1 $-1 $262 -3.1415926535897931 $264 0 $269 $282 forward @7 unknown F #
-271 coedge $-1 -1 -1 $-1 $269 $253 $248 $272 reversed $276 $-1 #
-272 edge $-1 -1 -1 $-1 $262 -2.7410118821571077 $232 -0.400580771432687 $248 $283 forward @7 unknown F #
-273 coedge $-1 -1 -1 $-1 $253 $269 $249 $274 forward $276 $-1 #
-274 edge $-1 -1 -1 $-1 $264 -2.7410118821571077 $230 -0.400580771432687 $273 $284 forward @7 unknown F #
-275 ellipse-curve $-1 -1 -1 $-1 9.5124456548749811e-16 -3.8175013412013308 0 0 1 0 0 0 7.5499999999999989 1 I I #
-276 loop $-1 -1 -1 $-1 $-1 $271 $267 F unknown #
-277 ellipse-curve $-1 -1 -1 $-1 9.5124456548749811e-16 -3.8175013412013308 0 0 1 0 0 0 7.9499999999999984 1 I I #
-278 point $-1 -1 -1 $-1 1.8758528988437498e-15 -3.8175013412013308 -7.5499999999999989 #
-279 point $-1 -1 -1 $-1 9.5124456548749811e-16 -3.8175013412013308 7.5499999999999989 #
-280 integer_attrib-name_attrib-gen-attrib $-1 -1 $-1 $-1 $267 2 1 2 1 1 1 1 1 1 1 1 1 1 1 0 1 1 1 @8 Revolve1 0 #
-281 torus-surface $-1 -1 -1 $-1 8.6736173798840355e-16 -3.7328057464683404 0 0 1 0 7.7499999999999991 0.21719425353166036 0 0 1 forward_v I I I I #
-282 ellipse-curve $-1 -1 -1 $-1 9.5124456548749811e-16 -3.8175013412013308 0 0 1 0 0 0 7.5499999999999989 1 I I #
-283 ellipse-curve $-1 -1 -1 $-1 1.8164630073276021e-15 -3.7328057464683404 -7.7499999999999991 1 0 1.2246467991473532e-16 2.6598624738074697e-17 0 -0.2171942535316605 1 I I #
-284 ellipse-curve $-1 -1 -1 $-1 8.6736173798840355e-16 -3.7328057464683404 7.7499999999999991 -1 0 0 0 0 0.2171942535316605 1 I I #
End-of-ACIS-data 